<?xml version="1.0" encoding="UTF-8"?>
<svg version="1.1" xmlns="http://www.w3.org/2000/svg" width="981" height="654">
<path d="M0 0 C33.59744535 -0.06878757 67.19487307 -0.12159028 100.7923733 -0.15319599 C104.76612333 -0.15694775 108.73987322 -0.16083075 112.71362305 -0.16479492 C113.5046673 -0.16558185 114.29571155 -0.16636878 115.11072684 -0.16717956 C127.89005322 -0.18020484 140.66933877 -0.20384267 153.44864099 -0.23145839 C166.57833462 -0.25959295 179.70800698 -0.27619321 192.83772951 -0.28226548 C200.92813911 -0.2863653 209.01843329 -0.29927594 217.10880733 -0.3237494 C223.33068817 -0.34160267 229.5524825 -0.34334544 235.77438545 -0.33932304 C238.31347994 -0.34014358 240.85257908 -0.34604648 243.39164734 -0.35761642 C259.83565994 -0.42882781 276.02090764 -0.20628026 291.625 5.6875 C292.31754883 5.94241211 293.01009766 6.19732422 293.72363281 6.45996094 C314.45142789 14.36390831 333.63183199 28.37625568 346 47 C346.54914063 47.80566406 347.09828125 48.61132812 347.6640625 49.44140625 C365.50983195 76.4459076 372.2115902 108.09698381 366 140 C364.3945255 147.18230909 362.7227479 154.53010633 360.07250977 161.40649414 C358.16988698 165.9094965 358.16988698 165.9094965 358.95703125 170.50390625 C359.56933594 171.18324219 360.18164062 171.86257812 360.8125 172.5625 C380.28510738 196.95052284 384.92515263 230.89358566 381.67041016 261.05419922 C380.84182278 266.81192268 379.56759543 272.40181567 378 278 C377.82339844 278.65387695 377.64679688 279.30775391 377.46484375 279.98144531 C372.81764297 296.73718589 364.89376084 312.47697852 354 326 C353.51063965 326.6074707 353.0212793 327.21494141 352.51708984 327.84082031 C346.85075173 334.79455332 341.13146031 341.50486791 334 347 C333.26136719 347.5882959 333.26136719 347.5882959 332.5078125 348.18847656 C307.35596408 368.12987751 278.21176514 378.21732801 246.1166687 378.12025452 C245.0668186 378.12110894 244.0169685 378.12196337 242.93530476 378.12284368 C239.44236641 378.1244815 235.94947684 378.11900508 232.45654297 378.11352539 C229.94278464 378.11324313 227.42902623 378.11340202 224.91526794 378.1139679 C219.51608543 378.11419509 214.11691843 378.11137173 208.71773911 378.10573006 C200.91158048 378.09757864 193.1054277 378.09499611 185.29926528 378.09374207 C172.63212405 378.09155726 159.96498929 378.08491268 147.29785156 378.07543945 C134.9980472 378.06625055 122.6982446 378.05917695 110.3984375 378.05493164 C109.63938086 378.05466892 108.88032423 378.05440619 108.09826587 378.05413551 C104.29003406 378.0528304 100.48180223 378.05156671 96.67357039 378.05032361 C65.1157089 378.03996878 33.55785543 378.02229132 2 378 C3.38310255 374.46204844 4.91278729 371.24399781 6.8359375 367.96484375 C7.39885498 367.00191406 7.96177246 366.03898437 8.54174805 365.046875 C9.14672119 364.02078125 9.75169434 362.9946875 10.375 361.9375 C11.00639893 360.86113281 11.63779785 359.78476562 12.28833008 358.67578125 C16.52232683 351.47133373 20.80057288 344.29421968 25.11132812 337.13549805 C36.8647468 317.61206088 48.46872813 297.99787582 59.921875 278.296875 C60.41751953 277.44802734 60.91316406 276.59917969 61.42382812 275.72460938 C62.58749298 273.71306975 63.73481055 271.69205255 64.87304688 269.66601562 C65.49759766 268.56451172 66.12214844 267.46300781 66.765625 266.328125 C67.33571289 265.31137695 67.90580078 264.29462891 68.49316406 263.24707031 C68.99041992 262.50553711 69.48767578 261.76400391 70 261 C70.66 261 71.32 261 72 261 C72 280.47 72 299.94 72 320 C95.60126358 319.93702433 119.20238473 319.86175844 142.80352879 319.76428509 C153.76313373 319.71941186 164.72270679 319.67997782 175.68237305 319.65356445 C185.24019006 319.63051558 194.79790547 319.59704111 204.35564178 319.55129844 C209.41150802 319.52745883 214.4672742 319.50866956 219.52319527 319.50238609 C224.29288731 319.49629308 229.06232366 319.47614291 233.83192062 319.44572449 C235.57200144 319.4370113 237.31211577 319.43320754 239.05221748 319.43499184 C263.45396637 319.45209602 283.71169834 313.58205908 301.8125 296.5625 C316.61782938 280.86096424 323.67399407 261.23414352 323.40039062 239.921875 C322.94468375 225.35950872 318.27416426 210.48806436 308.02734375 199.68359375 C300.62063863 193.53274615 293.38751519 190.8895624 283.91326904 190.84178162 C282.84233533 190.83437465 282.84233533 190.83437465 281.74976659 190.82681805 C279.35759411 190.81146077 276.96544843 190.80308723 274.57324219 190.79467773 C272.85838587 190.78509782 271.14353191 190.77508767 269.42868042 190.76467896 C264.77205607 190.73763613 260.1154216 190.71662317 255.45876217 190.69667697 C250.59270824 190.6748136 245.7266855 190.64742662 240.86065674 190.62062073 C231.64557233 190.5706986 222.43047059 190.52575797 213.2153523 190.48259836 C202.72450747 190.4332219 192.23369394 190.37830528 181.74287939 190.32291877 C160.16194876 190.20910609 138.58098824 190.10226547 117 190 C116.97687149 182.45501767 116.95908231 174.91003899 116.94818783 167.36502934 C116.94296011 163.86191115 116.9358645 160.35881715 116.92456055 156.85571289 C116.91165794 152.83219159 116.90677088 148.80869586 116.90234375 144.78515625 C116.89460182 142.88987938 116.89460182 142.88987938 116.88670349 140.95631409 C116.88662796 139.795186 116.88655243 138.63405792 116.88647461 137.43774414 C116.884254 136.40960098 116.88203339 135.38145782 116.87974548 134.32215881 C117 132 117 132 118 131 C120.18113412 130.89861404 122.36561554 130.86921931 124.54910278 130.86628723 C125.24174473 130.86402167 125.93438667 130.86175612 126.64801776 130.85942191 C128.98687869 130.85305333 131.3256821 130.85391314 133.66455078 130.85473633 C135.33492102 130.85174626 137.00529056 130.84834409 138.67565918 130.84455872 C143.23018456 130.83569029 147.78469116 130.83337917 152.33922434 130.83274293 C155.18818641 130.83203303 158.0371437 130.82989966 160.88610458 130.82724571 C170.83667046 130.81797681 180.78722292 130.81391199 190.73779297 130.81469727 C199.99029836 130.81529569 209.24274501 130.80479439 218.49523556 130.7889536 C226.44871802 130.77582586 234.40218143 130.77051569 242.35567462 130.77115268 C247.10077592 130.7714065 251.84582524 130.76862046 256.59091568 130.75797462 C261.06751936 130.74820759 265.5440224 130.74827269 270.02062988 130.75549126 C271.65268986 130.75652711 273.28475638 130.7542346 274.91680527 130.7481308 C300.31877226 130.65938613 300.31877226 130.65938613 307 134 C310.36266701 116.79635539 309.77360057 99.2338632 300.09375 84 C290.92995751 71.09325001 279.84162131 63.46289525 264.25230789 60.43068314 C257.02894088 59.47413706 249.69809063 59.68945195 242.42333984 59.68115234 C240.5499631 59.67184246 238.67659047 59.66167223 236.80322266 59.65071106 C231.74200146 59.6235165 226.68080793 59.60829303 221.61953306 59.59528303 C216.32108116 59.57960618 211.02268537 59.55283055 205.72427368 59.5272522 C195.70190915 59.48054487 185.67953397 59.44376189 175.65711653 59.41057932 C164.24231491 59.37230098 152.82756976 59.32290583 141.41281581 59.27259517 C117.9419138 59.169395 94.47098786 59.08156326 71 59 C71 78.14 71 97.28 71 117 C67.66573109 113.66573109 65.86131985 111.36675243 63.609375 107.37890625 C62.98651611 106.28529785 62.36365723 105.19168945 61.72192383 104.06494141 C61.39978912 103.49269836 61.07765442 102.92045532 60.74575806 102.33087158 C59.07153595 99.35761238 57.37613632 96.39644891 55.68359375 93.43359375 C55.04019043 92.30550293 54.39678711 91.17741211 53.73388672 90.01513672 C51.24611575 85.68903542 48.64098018 81.45056828 45.99609375 77.21875 C43.40967272 73.04808283 40.8935368 68.83690272 38.375 64.625 C32.24468718 54.38378298 26.0409752 44.18814608 19.82617188 33.99804688 C17.92751689 30.88100366 16.03353392 27.76116065 14.140625 24.640625 C13.5101123 23.60204346 12.87959961 22.56346191 12.22998047 21.4934082 C11.02490545 19.50815893 9.82075119 17.52235036 8.61767578 15.53588867 C6.3463262 11.79683087 4.08366538 8.07616494 1.6015625 4.47265625 C0 2 0 2 0 0 Z " fill="#314BF7" transform="translate(281,8)"/>
<path d="M0 0 C1.00042328 -0.0098568 1.00042328 -0.0098568 2.02105713 -0.01991272 C4.24377556 -0.03972358 6.46642548 -0.05133812 8.68920898 -0.0612793 C9.83284566 -0.06739259 9.83284566 -0.06739259 10.99958611 -0.07362938 C15.05099087 -0.09454349 19.10236144 -0.10881038 23.15380859 -0.11816406 C27.29904176 -0.12911647 31.44372125 -0.16336766 35.58876133 -0.20333576 C38.80544368 -0.22978978 42.02200139 -0.23788201 45.23878288 -0.24144554 C46.76348459 -0.24625403 48.28818299 -0.25769926 49.81277657 -0.27648354 C64.90938546 -0.45061103 81.44702527 1.16837329 92.87280273 11.98950195 C100.98687991 20.54993308 102.09777055 28.53168009 101.90014648 39.9621582 C101.56296355 47.57309835 98.33869617 53.10917157 93.28295898 58.66918945 C90.63783339 61.07158587 87.8124334 62.58218662 84.62280273 64.17700195 C85.34725586 64.55211914 86.07170898 64.92723633 86.81811523 65.3137207 C95.90988564 70.12629784 103.85698637 75.02539106 107.71655273 85.00512695 C110.7338424 95.56564079 110.30331702 105.58290593 105.12280273 115.23950195 C98.42721785 125.62975899 88.1129492 131.07364094 76.24134827 133.70481873 C67.31618964 135.37766409 58.55425467 135.45195009 49.51733398 135.4074707 C47.90020281 135.4062759 46.28307093 135.40582638 44.66593933 135.40608215 C41.30507967 135.40453024 37.9443285 135.39633281 34.58349609 135.3828125 C30.26804921 135.36567305 25.95271928 135.36200313 21.63724232 135.36275768 C18.31138486 135.36248669 14.98555314 135.35701943 11.65970421 135.34975624 C10.06682212 135.34656995 8.47393712 135.34460226 6.88105202 135.34386253 C4.66967328 135.34170706 2.4584219 135.33298474 0.24707031 135.32226562 C-1.01135178 135.31845383 -2.26977386 135.31464203 -3.56632996 135.31071472 C-6.37719727 135.17700195 -6.37719727 135.17700195 -7.37719727 134.17700195 C-7.4756206 132.4583909 -7.50351767 130.73570915 -7.50418091 129.01428223 C-7.50700073 127.89527023 -7.50982056 126.77625824 -7.51272583 125.62333679 C-7.5107016 124.38485489 -7.50867737 123.14637299 -7.5065918 121.87036133 C-7.50834412 120.57459671 -7.51009644 119.27883209 -7.51190186 117.94380188 C-7.51647584 114.37984859 -7.51468678 110.81592411 -7.51152277 107.25197029 C-7.50899899 103.53016199 -7.51133676 99.80835624 -7.51290894 96.08654785 C-7.51473058 89.83528193 -7.51232446 83.5840278 -7.50756836 77.33276367 C-7.50212575 70.09539072 -7.50388841 62.85804593 -7.50939476 55.62067366 C-7.51392605 49.41771436 -7.51457637 43.21476357 -7.5119561 37.01180315 C-7.5103934 33.30227223 -7.51019934 29.59275457 -7.51349258 25.88322449 C-7.51690535 21.75001342 -7.51218132 17.61685126 -7.5065918 13.48364258 C-7.50962814 11.62591972 -7.50962814 11.62591972 -7.51272583 9.73066711 C-7.50990601 8.61165512 -7.50708618 7.49264313 -7.50418091 6.33972168 C-7.50380388 5.36115456 -7.50342686 4.38258743 -7.50303841 3.37436676 C-7.24061899 -1.20784854 -3.878382 0.03153182 0 0 Z M17.62280273 22.17700195 C17.62280273 33.39700195 17.62280273 44.61700195 17.62280273 56.17700195 C23.2972449 56.2231148 28.97102702 56.26287977 34.64550781 56.28686523 C36.57261366 56.29687282 38.49970452 56.31048305 40.42675781 56.32788086 C43.20959186 56.35236116 45.99222374 56.36353773 48.77514648 56.37231445 C49.62551987 56.38263702 50.47589325 56.39295959 51.35203552 56.40359497 C59.57220987 56.40510899 67.11563389 55.59964265 73.62280273 50.17700195 C76.60501214 46.37211409 77.46235721 42.99036763 77.62280273 38.17700195 C76.77527327 33.70477058 75.5515772 30.215044 72.49780273 26.80200195 C65.28774791 22.72675357 58.52426947 21.74226212 50.33764648 21.8840332 C49.39595108 21.88827805 48.45425568 21.89252289 47.48402405 21.89689636 C44.50914556 21.9135398 41.5349726 21.95116423 38.56030273 21.98950195 C36.52971364 22.00456735 34.4991138 22.01825249 32.46850586 22.03051758 C27.51945503 22.06083026 22.57190816 22.11957787 17.62280273 22.17700195 Z M17.62280273 77.17700195 C17.62280273 89.05700195 17.62280273 100.93700195 17.62280273 113.17700195 C24.27603142 113.24614636 30.92799617 113.30579935 37.58129883 113.34179688 C39.84110761 113.3568149 42.10088757 113.3772354 44.3605957 113.40332031 C47.62254987 113.4400119 50.8841162 113.45679871 54.14624023 113.4699707 C55.14456879 113.48545456 56.14289734 113.50093842 57.17147827 113.51689148 C64.94142121 113.51872499 72.82428157 112.6885935 79.12280273 107.73950195 C83.04444185 103.71982186 83.92649678 100.90664994 83.99780273 95.30200195 C83.89643691 90.09433288 83.32228672 87.07119562 79.62280273 83.17700195 C72.01609228 76.95332976 63.71792914 76.88573129 54.34155273 76.98168945 C53.28746216 76.98451935 52.23337158 76.98734924 51.14733887 76.99026489 C47.80570764 77.00139209 44.46435192 77.02648292 41.12280273 77.05200195 C38.84676496 77.06204139 36.57072295 77.07116555 34.29467773 77.0793457 C28.73719647 77.09959891 23.18030527 77.13876226 17.62280273 77.17700195 Z " fill="#101F44" transform="translate(134.377197265625,427.822998046875)"/>
<path d="M0 0 C7.92 0 15.84 0 24 0 C28.86145527 13.40820728 33.66671023 26.82852763 38.3125 40.3125 C38.72032715 41.49610107 39.1281543 42.67970215 39.54833984 43.89916992 C42.0741892 51.25232473 44.55498949 58.61958155 47 66 C49.85857465 58.99511001 52.51748682 51.93679175 55.0625 44.8125 C55.43882568 43.76328369 55.81515137 42.71406738 56.20288086 41.63305664 C61.16931963 27.76753343 66.08424752 13.88355514 71 0 C78.26 0 85.52 0 93 0 C98.98931224 16.25995795 104.93872318 32.53145208 110.73779297 48.86035156 C112.77518839 54.59366573 114.84081141 60.31136852 117 66 C120.06481717 58.60837075 122.723539 51.12319124 125.2578125 43.53515625 C126.05591061 41.16598902 126.85409003 38.79684918 127.65234375 36.42773438 C128.89587877 32.72600855 130.13796341 29.02380418 131.37841797 25.32104492 C132.58446231 21.7244738 133.79584 18.12973322 135.0078125 14.53515625 C135.37866974 13.42270035 135.74952698 12.31024445 136.13162231 11.16407776 C136.47893402 10.13548141 136.82624573 9.10688507 137.18408203 8.04711914 C137.63897507 6.69004601 137.63897507 6.69004601 138.10305786 5.30555725 C139 3 139 3 141 0 C143.33837891 -0.34057617 143.33837891 -0.34057617 146.2265625 -0.29296875 C147.7734375 -0.2784668 147.7734375 -0.2784668 149.3515625 -0.26367188 C150.43179688 -0.23853516 151.51203125 -0.21339844 152.625 -0.1875 C153.71296875 -0.17396484 154.8009375 -0.16042969 155.921875 -0.14648438 C158.61507409 -0.11104754 161.30729374 -0.06164331 164 0 C163.40271275 6.393083 161.4016424 12.00333536 159.203125 18.01171875 C158.62488983 19.6170623 158.62488983 19.6170623 158.03497314 21.25483704 C156.779791 24.734771 155.51513741 28.21117427 154.25 31.6875 C153.38421332 34.07987832 152.51898188 36.47245765 151.65429688 38.86523438 C149.92298258 43.65394757 148.18816723 48.44137218 146.45117188 53.22802734 C144.2660053 59.25593749 142.1043444 65.29193763 139.953125 71.33203125 C139.07522156 73.79039313 138.19683953 76.24858334 137.3182373 78.70669556 C136.77669305 80.22450199 136.23671147 81.74286697 135.69836426 83.2618103 C134.96009429 85.34300996 134.21525391 87.42174229 133.46875 89.5 C133.06076172 90.6446875 132.65277344 91.789375 132.23242188 92.96875 C131.02592952 95.93622406 129.96899914 98.466766 128 101 C125.73168945 101.56762695 125.73168945 101.56762695 123.11328125 101.48828125 C122.17548828 101.47216797 121.23769531 101.45605469 120.27148438 101.43945312 C119.29501953 101.39755859 118.31855469 101.35566406 117.3125 101.3125 C115.83040039 101.27866211 115.83040039 101.27866211 114.31835938 101.24414062 C111.87738441 101.18517988 109.43945132 101.10295048 107 101 C103.27979155 92.3058278 99.91264251 83.51304535 96.6875 74.625 C96.20876441 73.31280898 95.72975693 72.00071712 95.25048828 70.6887207 C93.00167694 64.52761902 90.76769328 58.36124805 88.54296875 52.19140625 C87.98959839 50.6597583 87.98959839 50.6597583 87.42504883 49.09716797 C86.73853212 47.1948415 86.05466322 45.29155686 85.3737793 43.38720703 C84.92192261 42.13399658 84.92192261 42.13399658 84.4609375 40.85546875 C84.20103027 40.12996826 83.94112305 39.40446777 83.67333984 38.65698242 C83.12205032 36.99242332 83.12205032 36.99242332 82 36 C81.55720703 37.22291748 81.11441406 38.44583496 80.65820312 39.70581055 C78.97505015 44.35292778 77.2895883 48.99920506 75.60351562 53.64526367 C74.88155603 55.63560406 74.16017834 57.62615565 73.43945312 59.61694336 C68.42569425 73.46430115 63.27444432 87.2496187 58 101 C50.74 101 43.48 101 36 101 C32.08180846 91.88196549 28.6436718 82.65933926 25.32443237 73.31051636 C23.79547369 69.00425365 22.25626233 64.7016519 20.71875 60.3984375 C20.40796005 59.5276506 20.0971701 58.65686371 19.77696228 57.75968933 C16.22678521 47.81913573 12.6132913 37.90182091 8.99584961 27.9855957 C8.0991285 25.52744575 7.20490876 23.06843339 6.31201172 20.60888672 C5.39725436 18.09270823 4.47691275 15.57904484 3.55126953 13.06689453 C3.08737449 11.795968 2.62366356 10.52497424 2.16015625 9.25390625 C1.74515869 8.12412354 1.33016113 6.99434082 0.90258789 5.83032227 C0 3 0 3 0 0 Z " fill="#0B5FEC" transform="translate(457,462)"/>
<path d="M0 0 C7.26 0 14.52 0 22 0 C22.33 16.83 22.66 33.66 23 51 C24.65 49.35 26.3 47.7 28 46 C34.8156266 39.34665022 44.42795879 35.92160074 53.9375 35.75 C64.85061219 35.89550816 74.16322535 38.57739574 83 45 C84.06347656 45.77150391 84.06347656 45.77150391 85.1484375 46.55859375 C95.34463367 54.70383092 101.3337702 67.18889356 103 80 C103.86437888 96.52293481 101.89859989 111.32153713 90.6875 124.25 C79.93444337 135.58958699 68.60811141 140.52702693 53 141 C41.21670058 140.46377051 32.39552296 136.1244623 24.3984375 127.57421875 C23.93695312 127.05472656 23.47546875 126.53523437 23 126 C22.90912109 127.28197266 22.90912109 127.28197266 22.81640625 128.58984375 C22.69072266 130.24693359 22.69072266 130.24693359 22.5625 131.9375 C22.48128906 133.03964844 22.40007813 134.14179687 22.31640625 135.27734375 C22 138 22 138 21 139 C19.43827255 139.08685603 17.87270656 139.10702219 16.30859375 139.09765625 C15.36435547 139.09443359 14.42011719 139.09121094 13.44726562 139.08789062 C12.45404297 139.07951172 11.46082031 139.07113281 10.4375 139.0625 C9.44041016 139.05798828 8.44332031 139.05347656 7.41601562 139.04882812 C4.94395151 139.03700007 2.47200482 139.02051849 0 139 C-1.29987894 136.40024211 -1.12588538 134.51543418 -1.12698364 131.60313416 C-1.12980347 130.45750504 -1.13262329 129.31187592 -1.13552856 128.13153076 C-1.13350433 126.86859192 -1.1314801 125.60565308 -1.12939453 124.30444336 C-1.130749 122.96588595 -1.13252919 121.62732891 -1.13470459 120.28877258 C-1.13927307 116.64843485 -1.13749187 113.00812537 -1.1343255 109.36778712 C-1.13179942 105.56457234 -1.13414009 101.76136002 -1.13571167 97.95814514 C-1.13753241 91.57162032 -1.13512931 85.18510705 -1.13037109 78.79858398 C-1.12492633 71.40498013 -1.12669307 64.01140384 -1.1321975 56.61780065 C-1.13672856 50.27894127 -1.13737928 43.94009021 -1.13475883 37.60122973 C-1.13319632 33.81123023 -1.13300164 30.02124371 -1.13629532 26.23124504 C-1.13917401 22.66985591 -1.13719839 19.10850249 -1.13140106 15.54711723 C-1.12943798 13.60905889 -1.13242723 11.67099753 -1.13552856 9.73294067 C-1.13270874 8.59013138 -1.12988892 7.44732208 -1.12698364 6.2698822 C-1.12660662 5.27049087 -1.12622959 4.27109953 -1.12584114 3.24142361 C-1 1 -1 1 0 0 Z M28.5 66.75 C27.6186093 68.13727767 26.78448746 69.55571183 26 71 C25.38511719 72.07507813 25.38511719 72.07507813 24.7578125 73.171875 C20.85290062 81.19714218 20.51518662 91.13582132 22.6953125 99.74609375 C23.62539382 102.00095477 24.68323002 103.94895641 26 106 C26.42410156 106.70640625 26.84820313 107.4128125 27.28515625 108.140625 C31.24969581 114.10399928 36.51101334 117.91260572 43.515625 119.609375 C52.40980842 121.00783151 59.78118902 119.62891503 67.26953125 114.421875 C73.47099675 109.31343217 76.81145028 103.7619327 79 96 C79.99844675 84.90098732 79.31610004 75.31754128 72.3125 66.1875 C66.44189516 59.86875739 58.97021528 56.93819503 50.5 56.5625 C41.90736832 56.65703996 33.9798286 59.97594052 28.5 66.75 Z " fill="#0C62ED" transform="translate(750,424)"/>
<path d="M0 0 C8.30656147 7.85975376 11.82697716 18.47215723 12.25198364 29.65316772 C12.25277924 30.80709015 12.25357483 31.96101257 12.25439453 33.14990234 C12.25754669 34.46751556 12.26069885 35.78512878 12.26394653 37.14266968 C12.26215755 38.5612593 12.2601068 39.97984861 12.2578125 41.3984375 C12.25848677 42.86577368 12.25945783 44.33310976 12.26071167 45.80044556 C12.26218004 48.86160353 12.26006 51.92273217 12.25537109 54.98388672 C12.24964393 58.91496775 12.25297699 62.84598095 12.25894356 66.77705956 C12.26254668 69.80010495 12.26141227 72.82313409 12.25881577 75.84617996 C12.25814737 77.29671868 12.25897189 78.74725886 12.26129532 80.19779587 C12.26382096 82.21568526 12.25929227 84.23357982 12.25439453 86.25146484 C12.25359894 87.40061371 12.25280334 88.54976257 12.25198364 89.73373413 C12.125 92.3125 12.125 92.3125 11.125 93.3125 C9.57544441 93.41149523 8.02146327 93.44329524 6.46875 93.4453125 C5.05916016 93.44724609 5.05916016 93.44724609 3.62109375 93.44921875 C2.13802734 93.44341797 2.13802734 93.44341797 0.625 93.4375 C-0.36371094 93.44136719 -1.35242188 93.44523438 -2.37109375 93.44921875 C-3.31082031 93.44792969 -4.25054687 93.44664062 -5.21875 93.4453125 C-6.08693359 93.44418457 -6.95511719 93.44305664 -7.84960938 93.44189453 C-9.875 93.3125 -9.875 93.3125 -10.875 92.3125 C-11.10787008 90.63066052 -11.28764166 88.9412584 -11.4375 87.25 C-11.52128906 86.33089844 -11.60507812 85.41179687 -11.69140625 84.46484375 C-11.75199219 83.75457031 -11.81257813 83.04429687 -11.875 82.3125 C-12.82375 83.199375 -13.7725 84.08625 -14.75 85 C-26.37928129 94.99502384 -39.22723089 95.36988223 -53.875 94.3125 C-63.92391359 92.37576005 -71.90548391 86.65565912 -77.6875 78.296875 C-81.68954061 71.60925451 -81.61115334 63.88051541 -80.875 56.3125 C-78.75292625 48.2289304 -75.2750066 42.67881021 -68.1875 38.1875 C-58.22859423 32.48202968 -48.65097631 31.11728281 -37.3125 31.125 C-35.85336182 31.1240332 -35.85336182 31.1240332 -34.36474609 31.12304688 C-27.02880624 31.17667395 -20.06756492 31.79256175 -12.875 33.3125 C-12.42954575 27.07614053 -13.00513644 22.40086287 -16.875 17.3125 C-24.44352285 11.21904889 -34.19340502 11.51406334 -43.42822266 12.01220703 C-48.84835214 12.67741949 -53.74865731 14.82842211 -58.71484375 17 C-61.875 18.3125 -61.875 18.3125 -64.875 18.3125 C-66.41015625 16.484375 -66.41015625 16.484375 -67.9375 14.0625 C-68.44410156 13.27359375 -68.95070313 12.4846875 -69.47265625 11.671875 C-72.875 5.94759749 -72.875 5.94759749 -72.875 1.3125 C-50.98777888 -10.35003388 -21.4864649 -16.74331592 0 0 Z M-53.875 53.3125 C-56.84319017 56.8743282 -57.34595651 59.88617107 -57.16796875 64.38671875 C-56.54811014 68.46125599 -54.07951102 71.82010254 -50.875 74.3125 C-42.55666346 77.6324841 -32.6649671 77.74586618 -24.25 74.625 C-18.46661201 71.90114894 -14.75047338 67.99846431 -11.875 62.3125 C-11.51487667 59.18896211 -11.51487667 59.18896211 -11.6875 56 C-11.71457031 54.93136719 -11.74164063 53.86273437 -11.76953125 52.76171875 C-11.82173828 51.54935547 -11.82173828 51.54935547 -11.875 50.3125 C-24.68569671 46.30915728 -42.89646747 43.94058199 -53.875 53.3125 Z " fill="#122146" transform="translate(343.875,469.6875)"/>
<path d="M0 0 C9.74296965 7.79437572 16.2005473 20.04233331 17.66015625 32.390625 C17.98317549 38.05884365 17.99924862 43.72386986 17.66015625 49.390625 C16.66015625 50.390625 16.66015625 50.390625 13.73057556 50.51087952 C12.41819412 50.50865891 11.10581268 50.50643829 9.75366211 50.50415039 C9.03175186 50.50429642 8.30984161 50.50444244 7.5660553 50.5045929 C5.16900678 50.50389369 2.77203502 50.49610095 0.375 50.48828125 C-1.28266864 50.4864171 -2.94033782 50.48499318 -4.5980072 50.48399353 C-8.96938589 50.48016812 -13.34073156 50.47033765 -17.71209717 50.45928955 C-22.16938836 50.44907592 -26.62668486 50.44449601 -31.08398438 50.43945312 C-39.83595268 50.4287154 -48.58789411 50.41163871 -57.33984375 50.390625 C-56.72894778 52.15453528 -56.11024625 53.91574349 -55.48828125 55.67578125 C-55.14458496 56.65683838 -54.80088867 57.63789551 -54.44677734 58.64868164 C-52.0250708 64.64739936 -47.93835287 68.19147693 -42.33984375 71.390625 C-34.41037988 74.62974714 -23.05447583 75.0219922 -14.83984375 72.328125 C-10.19410685 70.15307545 -6.23372201 66.68059159 -2.33984375 63.390625 C1.41745872 65.0187894 4.27697925 67.40464417 7.41015625 70.015625 C8.395 70.83289063 9.37984375 71.65015625 10.39453125 72.4921875 C11.51601563 73.43191406 11.51601563 73.43191406 12.66015625 74.390625 C11.80136647 80.15861609 7.09940432 83.09289786 2.66015625 86.390625 C-11.28584719 94.71441763 -27.33028131 97.0083372 -43.3125 93.703125 C-56.35382063 89.97259228 -68.04501919 82.19714886 -75.21484375 70.578125 C-78.24814491 65.02409441 -80.07706733 59.57317838 -81.33984375 53.390625 C-81.56671875 52.359375 -81.79359375 51.328125 -82.02734375 50.265625 C-83.71425969 34.74599838 -79.41117992 19.65809972 -69.9375 7.2421875 C-63.45079564 0.12144437 -55.50483276 -4.75937842 -46.33984375 -7.609375 C-45.62441406 -7.83367187 -44.90898438 -8.05796875 -44.171875 -8.2890625 C-28.87017665 -12.35836661 -12.89146191 -8.86691537 0 0 Z M-51.33984375 19.390625 C-52.06171875 20.215625 -52.78359375 21.040625 -53.52734375 21.890625 C-56.71981102 26.29402813 -57.33984375 28.87530488 -57.33984375 34.390625 C-40.50984375 34.390625 -23.67984375 34.390625 -6.33984375 34.390625 C-4.93887285 28.78674139 -6.55450191 25.33727035 -9.33984375 20.390625 C-14.07075384 14.88146996 -19.7576183 10.91059385 -27.09375 10.078125 C-36.741846 9.68382223 -44.99409397 11.73839732 -51.33984375 19.390625 Z " fill="#0B5FEC" transform="translate(712.33984375,469.609375)"/>
<path d="M0 0 C51.81 0 103.62 0 157 0 C151.86725247 15.39824258 138.94909141 28.47534404 124.5859375 35.72265625 C113.06261323 41.12660987 113.06261323 41.12660987 107.38728333 41.12025452 C105.96751945 41.12231651 105.96751945 41.12231651 104.51907349 41.12442017 C103.4825766 41.12082489 102.44607971 41.11722961 101.37817383 41.11352539 C100.28533585 41.11367142 99.19249786 41.11381744 98.06654358 41.1139679 C94.44668609 41.11327005 90.82687977 41.10548358 87.20703125 41.09765625 C84.70025155 41.09579162 82.19347148 41.09436793 79.68669128 41.09336853 C73.75814995 41.08993774 67.82962509 41.08205257 61.90109223 41.07201904 C54.48940331 41.05974754 47.07771211 41.05437466 39.66601562 41.04882812 C26.44399922 41.03809709 13.22200486 41.02050314 0 41 C0 27.47 0 13.94 0 0 Z " fill="#5033FB" transform="translate(398,259)"/>
<path d="M0 0 C0 7.59 0 15.18 0 23 C-2.90662564 24.45331282 -5.77003206 24.38469051 -9 24.6875 C-16.8936566 25.62249881 -23.13173073 27.8039113 -28.61328125 33.75 C-34.72302982 42.40097143 -35.44346159 53.61094101 -35.4765625 63.85546875 C-35.49993179 65.45785149 -35.49993179 65.45785149 -35.52377319 67.09260559 C-35.57078382 70.45756446 -35.59891895 73.82231969 -35.625 77.1875 C-35.66149969 80.59181626 -35.70199769 83.99601699 -35.74765015 87.40022278 C-35.77488264 89.50797187 -35.79623135 91.61580665 -35.81118774 93.72367859 C-35.82658096 95.13699211 -35.82658096 95.13699211 -35.84228516 96.57885742 C-35.84878082 97.41092209 -35.85527649 98.24298676 -35.86196899 99.1002655 C-36 101 -36 101 -37 102 C-38.62257544 102.0991657 -40.24939831 102.13079777 -41.875 102.1328125 C-42.85984375 102.13410156 -43.8446875 102.13539063 -44.859375 102.13671875 C-45.89578125 102.13285156 -46.9321875 102.12898437 -48 102.125 C-49.55460937 102.13080078 -49.55460937 102.13080078 -51.140625 102.13671875 C-52.12546875 102.13542969 -53.1103125 102.13414062 -54.125 102.1328125 C-55.03507812 102.13168457 -55.94515625 102.13055664 -56.8828125 102.12939453 C-59 102 -59 102 -60 101 C-60.10065628 97.93081812 -60.13614443 94.88409724 -60.12939453 91.81445312 C-60.13114685 90.85030991 -60.13289917 89.88616669 -60.13470459 88.89280701 C-60.13912493 85.68893664 -60.13618447 82.48512098 -60.1328125 79.28125 C-60.13348549 77.06547027 -60.13445547 74.84969061 -60.13571167 72.63391113 C-60.13718889 67.98330993 -60.13503331 63.33272789 -60.13037109 58.68212891 C-60.1246738 52.70617396 -60.12795267 46.73026391 -60.13394356 40.75431061 C-60.13754852 36.17685606 -60.13641088 31.59941225 -60.13381577 27.0219574 C-60.13314632 24.81782526 -60.13397554 22.61369217 -60.13629532 20.40956116 C-60.13882078 17.33486328 -60.13498275 14.26023922 -60.12939453 11.18554688 C-60.13141876 10.26499008 -60.13344299 9.34443329 -60.13552856 8.39598083 C-60.11426228 2.11426228 -60.11426228 2.11426228 -59 1 C-57.29227642 0.91286169 -55.58101351 0.89299993 -53.87109375 0.90234375 C-52.31938477 0.90717773 -52.31938477 0.90717773 -50.73632812 0.91210938 C-49.64771484 0.92048828 -48.55910156 0.92886719 -47.4375 0.9375 C-45.7987793 0.94426758 -45.7987793 0.94426758 -44.12695312 0.95117188 C-41.41794568 0.9630016 -38.7089662 0.98093769 -36 1 C-35.505 8.92 -35.505 8.92 -35 17 C-33.7625 15.205625 -33.7625 15.205625 -32.5 13.375 C-26.03468455 4.88458575 -11.09835264 -5.54917632 0 0 Z " fill="#132147" transform="translate(442,461)"/>
<path d="M0 0 C0.79476022 0.32490071 1.58952044 0.64980143 2.4083643 0.98454762 C6.8666098 2.24501399 10.85913066 2.27420037 15.46617126 2.24723816 C16.41218203 2.24965257 17.35819279 2.25206699 18.33287054 2.25455457 C21.49924654 2.26018499 24.66542021 2.25153301 27.83178711 2.24291992 C30.10387222 2.24399303 32.37595706 2.24593214 34.64804077 2.24867249 C40.8200104 2.25352181 46.99190777 2.24586194 53.16386867 2.23571944 C59.6311006 2.22693009 66.09833033 2.22869663 72.56556702 2.2290802 C83.43605915 2.22814329 94.30651939 2.21951368 105.17700195 2.20581055 C116.33455918 2.19175298 127.49209199 2.18463856 138.6496582 2.18530273 C139.33557078 2.18534269 140.02148337 2.18538265 140.72818118 2.18542381 C141.75534934 2.18548435 141.75534934 2.18548435 142.80326837 2.1855461 C156.17728572 2.18627373 169.55128927 2.1792663 182.9253037 2.1700995 C186.76579982 2.16797514 190.60629404 2.16725924 194.4467907 2.16686058 C200.50507461 2.16584977 206.5633332 2.15969331 212.62160873 2.14969444 C214.83580304 2.14679366 217.05000027 2.14553911 219.2641964 2.14612198 C229.89844085 2.14786072 240.44325722 2.08561014 251.03893375 1.11598682 C253.89907929 1.00395313 256.23405176 1.30668446 259 2 C259 2.33 259 2.66 259 3 C245.25162098 5.25975004 231.67650851 5.27108117 217.77539062 5.22705078 C215.26074732 5.22648567 212.74610369 5.22680517 210.23146057 5.22793579 C204.84873479 5.22838869 199.46607165 5.22278001 194.08335876 5.21146011 C186.30117413 5.19510489 178.51901285 5.18998694 170.73681289 5.18748413 C158.10626682 5.18312262 145.4757468 5.16985575 132.84521484 5.15087891 C120.58642709 5.13247991 108.32764645 5.11834316 96.06884766 5.10986328 C95.31136736 5.10933783 94.55388706 5.10881239 93.77345282 5.10827102 C89.97284484 5.10566067 86.17223682 5.10313332 82.37162876 5.10064721 C50.91440024 5.07996287 19.4572041 5.04462959 -12 5 C-11.67 4.34 -11.34 3.68 -11 3 C-7.7 3 -4.4 3 -1 3 C-0.67 2.01 -0.34 1.02 0 0 Z " fill="#B678FC" transform="translate(295,381)"/>
<path d="M0 0 C56.1 0 112.2 0 170 0 C170 0.33 170 0.66 170 1 C159.91092539 1.79093893 149.91377803 2.13786346 139.79052734 2.09765625 C138.3383184 2.09573048 136.88610878 2.09426981 135.43389893 2.0932312 C132.34187921 2.09010416 129.24988781 2.08388885 126.15787888 2.07516479 C121.26578747 2.06150069 116.37370499 2.05571978 111.4815979 2.05102539 C101.11271951 2.03999526 90.7438635 2.02041846 80.375 2 C69.14242448 1.97793423 57.90985766 1.9574018 46.67726481 1.94658184 C41.81560657 1.94160862 36.9539902 1.93176497 32.09234881 1.91815186 C29.07441707 1.91069175 26.05649106 1.9073768 23.03855133 1.9051857 C21.64093558 1.90331481 20.2433209 1.89971607 18.84571457 1.89425278 C16.93681765 1.88702546 15.02789864 1.88658397 13.11898804 1.88647461 C11.51802056 1.88314369 11.51802056 1.88314369 9.88471031 1.87974548 C7.14697958 1.99387288 4.66428793 2.37983437 2 3 C2.00523682 3.7528125 2.01047363 4.505625 2.01586914 5.28125 C2.0372784 8.85415735 2.04985559 12.42705124 2.0625 16 C2.07087891 17.18207031 2.07925781 18.36414063 2.08789062 19.58203125 C2.11980044 31.77158248 1.50938384 43.77478791 1 56 C57.43 56 113.86 56 172 56 C172 56.33 172 56.66 172 57 C115.24 57 58.48 57 0 57 C0 38.19 0 19.38 0 0 Z " fill="#0838E4" transform="translate(399,140)"/>
<path d="M0 0 C19.91759217 -0.02354924 39.83518144 -0.04108578 59.75278473 -0.05181217 C69.0046282 -0.056929 78.25646293 -0.06388161 87.50830078 -0.07543945 C95.58919866 -0.08552953 103.6700902 -0.09188678 111.75099421 -0.09408849 C116.01429691 -0.09537178 120.27758151 -0.09830098 124.5408783 -0.10573006 C146.04863486 -0.14178671 167.5070163 0.1721038 189 1 C189 1.33 189 1.66 189 2 C126.96 2 64.92 2 1 2 C1 21.14 1 40.28 1 60 C-2.45397435 56.54602565 -3.56375905 55.30872286 -5 51 C-3.02 50.505 -3.02 50.505 -1 50 C-1.03552979 49.2565332 -1.07105957 48.51306641 -1.10766602 47.74707031 C-2.2674012 22.61624785 -2.2674012 22.61624785 -1.625 10.375 C-1.58189697 9.54774414 -1.53879395 8.72048828 -1.49438477 7.86816406 C-1.14534517 2.29069034 -1.14534517 2.29069034 0 0 Z " fill="#0580FA" transform="translate(351,65)"/>
<path d="M0 0 C51.81 0 103.62 0 157 0 C156.34 1.98 155.68 3.96 155 6 C154.67 6 154.34 6 154 6 C154 4.35 154 2.7 154 1 C103.51 1 53.02 1 1 1 C1 13.87 1 26.74 1 40 C37.63 40 74.26 40 112 40 C112 40.33 112 40.66 112 41 C75.04 41 38.08 41 0 41 C0 27.47 0 13.94 0 0 Z " fill="#7664F6" transform="translate(398,259)"/>
<path d="M0 0 C1.890625 0.24609375 1.890625 0.24609375 4 1 C5.44963687 3.55850089 6.10400905 6.1776285 7 9 C7.99 6.03 8.98 3.06 10 0 C11.32 0 12.64 0 14 0 C14.99 2.97 15.98 5.94 17 9 C18.49403054 6.01193893 19.79310745 3.10343799 21 0 C22.32 0 23.64 0 25 0 C23.3186083 6.48707154 21.46937673 12.7677635 19 19 C17.68 19 16.36 19 15 19 C14.01 15.7 13.02 12.4 12 9 C11.01 12.3 10.02 15.6 9 19 C7.35 19 5.7 19 4 19 C3.32713788 16.58490559 2.66153988 14.16819644 2 11.75 C1.71382812 10.72712891 1.71382812 10.72712891 1.421875 9.68359375 C0.50042956 6.29399088 0 3.54221024 0 0 Z " fill="#7D84A0" transform="translate(726,601)"/>
<path d="M0 0 C5 1 5 1 6.80078125 3.06640625 C7.29964844 3.89011719 7.79851562 4.71382812 8.3125 5.5625 C8.82425781 6.38878906 9.33601563 7.21507812 9.86328125 8.06640625 C10.23839844 8.70449219 10.61351562 9.34257813 11 10 C11.33 6.7 11.66 3.4 12 0 C13.32 0 14.64 0 16 0 C16 6.27 16 12.54 16 19 C11 18 11 18 9.19921875 15.93359375 C8.70035156 15.10988281 8.20148438 14.28617188 7.6875 13.4375 C7.17574219 12.61121094 6.66398437 11.78492188 6.13671875 10.93359375 C5.76160156 10.29550781 5.38648438 9.65742187 5 9 C4.67 12.3 4.34 15.6 4 19 C2.68 19 1.36 19 0 19 C0 12.73 0 6.46 0 0 Z " fill="#858CA7" transform="translate(292,601)"/>
<path d="M0 0 C5 1 5 1 6.80078125 3.06640625 C7.29964844 3.89011719 7.79851563 4.71382812 8.3125 5.5625 C8.82425781 6.38878906 9.33601562 7.21507812 9.86328125 8.06640625 C10.23839844 8.70449219 10.61351562 9.34257813 11 10 C11.33 6.7 11.66 3.4 12 0 C13.32 0 14.64 0 16 0 C16 6.27 16 12.54 16 19 C11 18 11 18 9.19921875 15.93359375 C8.70035156 15.10988281 8.20148437 14.28617188 7.6875 13.4375 C7.17574219 12.61121094 6.66398438 11.78492188 6.13671875 10.93359375 C5.76160156 10.29550781 5.38648438 9.65742187 5 9 C4.67 12.3 4.34 15.6 4 19 C2.68 19 1.36 19 0 19 C0 12.73 0 6.46 0 0 Z " fill="#717A9A" transform="translate(563,601)"/>
<path d="M0 0 C2.89583692 1.57382441 4.55413169 2.68441325 5.6328125 5.8671875 C6.25043506 9.34952744 6.20172633 11.49568418 4.875 14.8125 C2.68318613 17.36961619 1.13095521 18.71915469 -2 20 C-6.24773336 20 -8.42070506 19.39441358 -11.9375 17 C-14.37206575 13.45881346 -14.72498381 11.37469649 -14.5 7.15625 C-13.70000747 3.70628222 -11.74407005 2.09072004 -9 0 C-5.81229009 -1.59385496 -3.40972958 -0.75129635 0 0 Z M-10 5 C-10.85763141 8.03469577 -11.16850561 10.22066157 -10.5 13.3125 C-8.97103191 15.33158172 -8.97103191 15.33158172 -5.625 16 C-2.03215598 16.31084119 -2.03215598 16.31084119 0.5 14.5 C2.32777159 11.96724747 2.32777159 11.96724747 1.875 8.375 C1.29259286 4.95457945 1.29259286 4.95457945 -1 3 C-5.05261287 2.65509678 -6.54754176 2.69836118 -10 5 Z " fill="#777F9C" transform="translate(280,601)"/>
<path d="M0 0 C3.49406513 3.05730699 4.80770576 4.92315225 5.625 9.5 C4.81377742 14.04284646 3.43030767 15.93461868 0 19 C-3.93283177 20.19389536 -5.96253872 20.44799464 -9.75 18.8125 C-12.08638069 16.93041555 -13.59754886 15.65727585 -15 13 C-15.37025936 8.8530952 -15.56203933 5.41605244 -13 2 C-8.88645692 -1.50861027 -4.96980184 -1.79353736 0 0 Z M-9.875 4.0625 C-11.64273274 7.1069286 -11.36823916 9.5631012 -11 13 C-10.01951062 15.06402685 -10.01951062 15.06402685 -8 16 C-4.88188517 16.38976435 -2.88980433 16.50422245 -0.125 14.9375 C1.64273274 11.8930714 1.36823916 9.4368988 1 6 C0.01951062 3.93597315 0.01951062 3.93597315 -2 3 C-5.11811483 2.61023565 -7.11019567 2.49577755 -9.875 4.0625 Z " fill="#7C849F" transform="translate(716,601)"/>
<path d="M0 0 C5 1 5 1 6.80078125 3.28515625 C7.29964844 4.20167969 7.79851563 5.11820313 8.3125 6.0625 C8.82425781 6.98160156 9.33601562 7.90070312 9.86328125 8.84765625 C10.23839844 9.55792969 10.61351562 10.26820313 11 11 C11.33 7.37 11.66 3.74 12 0 C13.32 0 14.64 0 16 0 C16 6.27 16 12.54 16 19 C11 18 11 18 8.98046875 15.71484375 C8.38878906 14.79832031 7.79710937 13.88179687 7.1875 12.9375 C6.58292969 12.01839844 5.97835937 11.09929688 5.35546875 10.15234375 C4.90816406 9.44207031 4.46085938 8.73179687 4 8 C3.67 11.63 3.34 15.26 3 19 C1.68 19 0.36 19 -1 19 C-0.67 12.73 -0.34 6.46 0 0 Z " fill="#767D9B" transform="translate(643,601)"/>
<path d="M0 0 C10.4893259 -0.3702115 10.4893259 -0.3702115 12.83203125 1.328125 C14.65454876 3.93694605 14.37891308 5.90554322 14 9 C12.5 11.375 12.5 11.375 11 13 C11.495 13.61875 11.99 14.2375 12.5 14.875 C14 17 14 17 14 19 C10.84859577 18.65930765 9.39218439 18.41923159 7.1875 16.0625 C6 14 6 14 6 12 C5.34 12 4.68 12 4 12 C4 14.31 4 16.62 4 19 C2.68 19 1.36 19 0 19 C0 12.73 0 6.46 0 0 Z M4 3 C4 4.98 4 6.96 4 9 C5.65 9 7.3 9 9 9 C9.38218767 7.34385343 9.71395102 5.67542976 10 4 C8.93354885 2.70366379 8.93354885 2.70366379 6.4375 2.9375 C5.633125 2.958125 4.82875 2.97875 4 3 Z " fill="#4F5A81" transform="translate(246,601)"/>
<path d="M0 0 C18.15 0 36.3 0 55 0 C55.495 1.485 55.495 1.485 56 3 C37.52 3 19.04 3 0 3 C0 2.01 0 1.02 0 0 Z " fill="#9AA0B7" transform="translate(797,609)"/>
<path d="M0 0 C18.15 0 36.3 0 55 0 C55 0.99 55 1.98 55 3 C36.85 3 18.7 3 0 3 C0 2.01 0 1.02 0 0 Z " fill="#9CA3BA" transform="translate(128,609)"/>
<path d="M0 0 C2.4375 1.9375 2.4375 1.9375 4 4 C4 4.66 4 5.32 4 6 C-0.875 5.125 -0.875 5.125 -2 4 C-4.95817107 3.74994614 -4.95817107 3.74994614 -8 4 C-10.37994368 5.94332332 -10.37994368 5.94332332 -10.25 9.5 C-10.37994368 13.05667668 -10.37994368 13.05667668 -8 15 C-5 15.33333333 -5 15.33333333 -2 15 C-1.34 14.34 -0.68 13.68 0 13 C1.32 13 2.64 13 4 13 C2.98949988 15.66404576 2.02766415 16.97707828 -0.1875 18.8125 C-3.94120071 20.39739585 -6.09737951 20.06435104 -10 19 C-13.49218239 16.15111437 -14.8567349 14.24163088 -15.375 9.75 C-14.87855761 4.78557614 -13.52492587 3.44295085 -10 0 C-6.19426871 -1.2685771 -3.89430952 -0.88817586 0 0 Z " fill="#727A99" transform="translate(494,601)"/>
<path d="M0 0 C9.625 -0.25 9.625 -0.25 13 2 C13.67605634 9.09859155 13.67605634 9.09859155 11.5 12 C11.005 12.33 10.51 12.66 10 13 C10.495 13.61875 10.99 14.2375 11.5 14.875 C13 17 13 17 13 19 C10.6875 18.8125 10.6875 18.8125 8 18 C6.3125 15.5 6.3125 15.5 5 13 C4.34 12.67 3.68 12.34 3 12 C3 14.31 3 16.62 3 19 C2.01 19 1.02 19 0 19 C0 12.73 0 6.46 0 0 Z M3 3 C3 4.98 3 6.96 3 9 C4.65 9 6.3 9 8 9 C9.10836423 7.11683841 9.10836423 7.11683841 10 5 C9.67 4.34 9.34 3.68 9 3 C7.02 3 5.04 3 3 3 Z " fill="#737B9A" transform="translate(623,601)"/>
<path d="M0 0 C0.66 1.65 1.32 3.3 2 5 C-1.02419525 4.41196203 -4.01758453 3.77321882 -7 3 C-6.28995535 6.27856999 -6.28995535 6.27856999 -3.0625 7.5625 C-2.051875 8.036875 -1.04125 8.51125 0 9 C0.66 9.66 1.32 10.32 2 11 C1.875 14.5 1.875 14.5 1 18 C-1.41376718 20.14557082 -2.83928605 20.00327988 -6.0625 19.9375 C-9 19 -9 19 -10.875 16.4375 C-11.24625 15.633125 -11.6175 14.82875 -12 14 C-10.68 13.67 -9.36 13.34 -8 13 C-7.67 13.99 -7.34 14.98 -7 16 C-5.01508358 15.73323796 -5.01508358 15.73323796 -3 15 C-2.67 14.01 -2.34 13.02 -2 12 C-3.11375 11.731875 -4.2275 11.46375 -5.375 11.1875 C-9 10 -9 10 -11 7 C-11.375 4.5 -11.375 4.5 -11 2 C-7.73834694 -1.91398368 -4.64693774 -0.98300606 0 0 Z " fill="#747A97" transform="translate(220,601)"/>
<path d="M0 0 C1.32 0 2.64 0 4 0 C6.31 5.94 8.62 11.88 11 18 C9.68 18.33 8.36 18.66 7 19 C6.67 17.68 6.34 16.36 6 15 C3.36 15.33 0.72 15.66 -2 16 C-2.33 16.99 -2.66 17.98 -3 19 C-4.65 19 -6.3 19 -8 19 C-7.04637378 16.39402144 -6.08732872 13.79026349 -5.125 11.1875 C-4.85558594 10.44951172 -4.58617187 9.71152344 -4.30859375 8.95117188 C-3.91220703 7.88286133 -3.91220703 7.88286133 -3.5078125 6.79296875 C-3.14647217 5.81106567 -3.14647217 5.81106567 -2.77783203 4.80932617 C-2 3 -2 3 0 0 Z M1 5 C0.34 7.31 -0.32 9.62 -1 12 C0.65 12 2.3 12 4 12 C3.34 9.69 2.68 7.38 2 5 C1.67 5 1.34 5 1 5 Z " fill="#60698B" transform="translate(464,601)"/>
<path d="M0 0 C1.65 0.33 3.3 0.66 5 1 C6.38721973 3.52167058 7.3687731 5.69571202 8.3125 8.375 C8.57611328 9.06078125 8.83972656 9.7465625 9.11132812 10.453125 C10.22425085 13.4247732 11 15.80482639 11 19 C9.68 18.67 8.36 18.34 7 18 C7 17.01 7 16.02 7 15 C5.72125 15.103125 4.4425 15.20625 3.125 15.3125 C2.40570313 15.37050781 1.68640625 15.42851563 0.9453125 15.48828125 C-1.39519216 15.87393036 -1.39519216 15.87393036 -3 19 C-4.32 18.67 -5.64 18.34 -7 18 C-4.69 12.06 -2.38 6.12 0 0 Z M2 5 C1.34 7.31 0.68 9.62 0 12 C1.65 12 3.3 12 5 12 C4.34 9.69 3.68 7.38 3 5 C2.67 5 2.34 5 2 5 Z " fill="#7E85A0" transform="translate(373,601)"/>
<path d="M0 0 C3.96 0 7.92 0 12 0 C12 0.99 12 1.98 12 3 C9.36 3 6.72 3 4 3 C4.33 4.32 4.66 5.64 5 7 C6.98 7 8.96 7 11 7 C11.33 8.32 11.66 9.64 12 11 C9.36 11 6.72 11 4 11 C4 12.65 4 14.3 4 16 C6.64 16 9.28 16 12 16 C12 16.99 12 17.98 12 19 C8.04 19 4.08 19 0 19 C0 12.73 0 6.46 0 0 Z " fill="#8A91A8" transform="translate(756,601)"/>
<path d="M0 0 C8.30078125 -0.390625 8.30078125 -0.390625 11 0 C12.8671875 1.8203125 12.8671875 1.8203125 14 4 C13.77962372 7.67293796 13.63033454 9.36966546 11 12 C8.67724823 12.40047444 6.34260643 12.7397104 4 13 C4 14.98 4 16.96 4 19 C2.68 19 1.36 19 0 19 C0 12.73 0 6.46 0 0 Z M4 3 C4 4.98 4 6.96 4 9 C5.65 8.67 7.3 8.34 9 8 C9.59070014 6.05396726 9.59070014 6.05396726 10 4 C8.93354885 2.70366379 8.93354885 2.70366379 6.4375 2.9375 C5.633125 2.958125 4.82875 2.97875 4 3 Z " fill="#7D859F" transform="translate(390,601)"/>
<path d="M0 0 C0.33 1.32 0.66 2.64 1 4 C-1.64 4 -4.28 4 -7 4 C-7 5.65 -7 7.3 -7 9 C-4.69 9 -2.38 9 0 9 C0 9.99 0 10.98 0 12 C-2.31 12 -4.62 12 -7 12 C-7 13.65 -7 15.3 -7 17 C-4.36 17 -1.72 17 1 17 C1 17.99 1 18.98 1 20 C-2.96 20 -6.92 20 -11 20 C-11 13.73 -11 7.46 -11 1 C-6.99783658 0.33297276 -3.92748389 -0.11551423 0 0 Z " fill="#959CB3" transform="translate(533,600)"/>
<path d="M0 0 C0.99 0 1.98 0 3 0 C3.33 1.98 3.66 3.96 4 6 C4.721875 5.01 5.44375 4.02 6.1875 3 C7.41796875 1.3125 7.41796875 1.3125 9 0 C10.65 0 12.3 0 14 0 C11.03 4.455 11.03 4.455 8 9 C8.928125 10.36125 8.928125 10.36125 9.875 11.75 C11.44389611 14.14948817 12.80443821 16.40961612 14 19 C9.16743695 18.58578031 7.17320782 16.53586014 4 13 C3.67 14.98 3.34 16.96 3 19 C2.01 19 1.02 19 0 19 C0 12.73 0 6.46 0 0 Z " fill="#515B7F" transform="translate(438,601)"/>
<path d="M0 0 C3.96 0 7.92 0 12 0 C12 0.99 12 1.98 12 3 C9.36 3 6.72 3 4 3 C4 4.65 4 6.3 4 8 C6.64 8 9.28 8 12 8 C12 8.99 12 9.98 12 11 C9.36 11 6.72 11 4 11 C4 12.65 4 14.3 4 16 C6.64 16 9.28 16 12 16 C12 16.99 12 17.98 12 19 C8.04 19 4.08 19 0 19 C0 12.73 0 6.46 0 0 Z " fill="#888EA7" transform="translate(604,601)"/>
<path d="M0 0 C-0.33 0.99 -0.66 1.98 -1 3 C-3.31 3 -5.62 3 -8 3 C-8 4.65 -8 6.3 -8 8 C-5.69 8 -3.38 8 -1 8 C-1 8.99 -1 9.98 -1 11 C-3.31 11 -5.62 11 -8 11 C-8 12.65 -8 14.3 -8 16 C-5.36 16 -2.72 16 0 16 C0 16.99 0 17.98 0 19 C-3.96 19 -7.92 19 -12 19 C-12 12.73 -12 6.46 -12 0 C-7.33041073 -0.93391785 -4.58533383 -0.80917656 0 0 Z " fill="#656E8F" transform="translate(678,601)"/>
<path d="M0 0 C0.66 0 1.32 0 2 0 C2 19.14 2 38.28 2 58 C-1.45397435 54.54602565 -2.56375905 53.30872286 -4 49 C-2.02 48.505 -2.02 48.505 0 48 C-0.03552979 47.2565332 -0.07105957 46.51306641 -0.10766602 45.74707031 C-0.81511708 30.41699544 -1.14652558 15.31052627 0 0 Z " fill="#3C97FA" transform="translate(350,67)"/>
<path d="M0 0 C0 0.33 0 0.66 0 1 C-5.52241114 2.16150201 -10.89010117 2.13414061 -16.50341797 2.11352539 C-18.07018028 2.11374443 -18.07018028 2.11374443 -19.66859436 2.1139679 C-23.10981344 2.11327305 -26.55097792 2.10550066 -29.9921875 2.09765625 C-32.38257823 2.09579055 -34.77296935 2.09436736 -37.1633606 2.09336853 C-43.44662537 2.08955532 -49.72986694 2.07973522 -56.01312256 2.06866455 C-62.42801601 2.05842473 -68.84291323 2.0538654 -75.2578125 2.04882812 C-87.83855155 2.03811189 -100.41927454 2.02124277 -113 2 C-113 1.67 -113 1.34 -113 1 C-111.86375687 0.98969254 -110.72751373 0.97938507 -109.55683899 0.96876526 C-98.80333797 0.87064006 -88.04988979 0.76787247 -77.29647541 0.66066074 C-71.76920215 0.60570021 -66.24192341 0.55232603 -60.71459961 0.50268555 C-55.37180099 0.4546421 -50.02905978 0.40229014 -44.6863308 0.34705925 C-42.65680576 0.32681518 -40.62726511 0.30807484 -38.59771156 0.29092598 C-28.8645977 0.20777619 -19.1983881 0.12297094 -9.50505066 -0.83509827 C-6.17167855 -1.0545265 -3.26022301 -0.68237226 0 0 Z " fill="#7809FB" transform="translate(554,383)"/>
<path d="M0 0 C1.32 0 2.64 0 4 0 C4.99 1.98 5.98 3.96 7 6 C8.50559539 4.03617993 9.89131683 2.21736634 11 0 C12.65 0 14.3 0 16 0 C15.65066406 0.70125 15.30132812 1.4025 14.94140625 2.125 C12.18613541 7.86970068 10.36068847 12.62783702 10 19 C8.68 19 7.36 19 6 19 C5.9071875 17.2984375 5.9071875 17.2984375 5.8125 15.5625 C5.27770656 11.01675577 3.43148873 7.74128762 1.05859375 3.8828125 C0 2 0 2 0 0 Z " fill="#797F9C" transform="translate(314,601)"/>
<path d="M0 0 C1.32 0 2.64 0 4 0 C4.05394705 2.60444348 4.09364469 5.20776998 4.125 7.8125 C4.14175781 8.55048828 4.15851562 9.28847656 4.17578125 10.04882812 C4.21074628 13.91246426 4.19397555 15.70903668 2 19 C-0.3125 19.875 -0.3125 19.875 -3 20 C-5.8125 18.5625 -5.8125 18.5625 -8 17 C-7.67 15.68 -7.34 14.36 -7 13 C-5.02 13.66 -3.04 14.32 -1 15 C-0.67 10.05 -0.34 5.1 0 0 Z " fill="#7A82A0" transform="translate(511,601)"/>
<path d="M0 0 C4.62 0 9.24 0 14 0 C14 0.99 14 1.98 14 3 C12.35 3 10.7 3 9 3 C9 8.28 9 13.56 9 19 C7.68 19 6.36 19 5 19 C5 13.72 5 8.44 5 3 C3.35 3 1.7 3 0 3 C0 2.01 0 1.02 0 0 Z " fill="#7A839F" transform="translate(227,601)"/>
<path d="M0 0 C4.62 0 9.24 0 14 0 C13.67 0.99 13.34 1.98 13 3 C11.68 3 10.36 3 9 3 C9 8.28 9 13.56 9 19 C7.68 19 6.36 19 5 19 C5 13.72 5 8.44 5 3 C3.35 3 1.7 3 0 3 C0 2.01 0 1.02 0 0 Z " fill="#77809D" transform="translate(683,601)"/>
<path d="M0 0 C-14.42278655 9.86506606 -32.239343 19.06522858 -50 20 C-50 19.34 -50 18.68 -50 18 C-48.99646484 17.77957031 -48.99646484 17.77957031 -47.97265625 17.5546875 C-33.88429068 14.26425044 -21.21643271 9.6341045 -8.80029297 2.16381836 C-8.08502441 1.73979736 -7.36975586 1.31577637 -6.6328125 0.87890625 C-6.00262207 0.4929126 -5.37243164 0.10691895 -4.72314453 -0.29077148 C-3 -1 -3 -1 0 0 Z " fill="#9B4CF9" transform="translate(604,363)"/>
<path d="M0 0 C1.32 0 2.64 0 4 0 C4 5.28 4 10.56 4 16 C6.31 16 8.62 16 11 16 C11 16.99 11 17.98 11 19 C7.37 19 3.74 19 0 19 C0 12.73 0 6.46 0 0 Z " fill="#7C85A2" transform="translate(410,601)"/>
<path d="M0 0 C1.32 0.33 2.64 0.66 4 1 C4.99 4.96 5.98 8.92 7 13 C7.66 11.35 8.32 9.7 9 8 C9.33 8 9.66 8 10 8 C10.125 15.625 10.125 15.625 9 19 C7.35 19 5.7 19 4 19 C3.32713788 16.58490559 2.66153988 14.16819644 2 11.75 C1.71382812 10.72712891 1.71382812 10.72712891 1.421875 9.68359375 C0.50042956 6.29399088 0 3.54221024 0 0 Z " fill="#8A92A8" transform="translate(726,601)"/>
<path d="M0 0 C4.29 0 8.58 0 13 0 C13 0.99 13 1.98 13 3 C11.35 3 9.7 3 8 3 C8 8.28 8 13.56 8 19 C7.01 19 6.02 19 5 19 C5 13.72 5 8.44 5 3 C3.35 3 1.7 3 0 3 C0 2.01 0 1.02 0 0 Z " fill="#60698D" transform="translate(585,601)"/>
<path d="M0 0 C3.875 1.875 3.875 1.875 5 3 C4.8125 6.4375 4.8125 6.4375 4 10 C1.58623282 12.14557082 0.16071395 12.00327988 -3.0625 11.9375 C-6 11 -6 11 -7.875 8.4375 C-8.24625 7.633125 -8.6175 6.82875 -9 6 C-7.68 5.67 -6.36 5.34 -5 5 C-4.67 5.99 -4.34 6.98 -4 8 C-2.01508358 7.73323796 -2.01508358 7.73323796 0 7 C0.33 6.01 0.66 5.02 1 4 C0.34 3.67 -0.32 3.34 -1 3 C-0.34 3 0.32 3 1 3 C0.67 2.01 0.34 1.02 0 0 Z " fill="#838AA4" transform="translate(217,609)"/>
<path d="M0 0 C1.32 0 2.64 0 4 0 C4 6.27 4 12.54 4 19 C2.68 19 1.36 19 0 19 C0 12.73 0 6.46 0 0 Z " fill="#7D85A0" transform="translate(346,601)"/>
<path d="M0 0 C1.32 0 2.64 0 4 0 C4 6.27 4 12.54 4 19 C2.68 19 1.36 19 0 19 C0 12.73 0 6.46 0 0 Z " fill="#707893" transform="translate(426,601)"/>
<path d="M0 0 C1.32 0 2.64 0 4 0 C4 6.27 4 12.54 4 19 C2.68 19 1.36 19 0 19 C0 12.73 0 6.46 0 0 Z " fill="#848CA7" transform="translate(552,601)"/>
<path d="M0 0 C0 0.66 0 1.32 0 2 C-2.31 2 -4.62 2 -7 2 C-7 2.66 -7 3.32 -7 4 C-7.99 4.495 -7.99 4.495 -9 5 C-9.69093896 7.57951874 -9.69093896 7.57951874 -10.125 10.5625 C-10.29257812 11.57441406 -10.46015625 12.58632813 -10.6328125 13.62890625 C-10.75398438 14.41136719 -10.87515625 15.19382812 -11 16 C-11.66 16 -12.32 16 -13 16 C-14.73631636 12.52736727 -14.60190402 8.78806987 -14 5 C-9.42308584 -0.78136526 -7.05436024 -1.17572671 0 0 Z " fill="#717999" transform="translate(280,601)"/>
<path d="M0 0 C10.75 -0.125 10.75 -0.125 13 1 C13 1.66 13 2.32 13 3 C12.34 3 11.68 3 11 3 C11 4.98 11 6.96 11 9 C10.34 8.67 9.68 8.34 9 8 C9 6.68 9 5.36 9 4 C7.35 3.67 5.7 3.34 4 3 C4 4.98 4 6.96 4 9 C5.32 9.33 6.64 9.66 8 10 C6.35 10 4.7 10 3 10 C3 7.69 3 5.38 3 3 C2.34 3 1.68 3 1 3 C1 8.28 1 13.56 1 19 C0.67 19 0.34 19 0 19 C0 12.73 0 6.46 0 0 Z " fill="#8C94AD" transform="translate(246,601)"/>
<path d="M0 0 C0.97608217 2.92824652 1.08226668 4.95613276 1 8 C3.97 8 6.94 8 10 8 C10.33 6.68 10.66 5.36 11 4 C11.99 6.97 12.98 9.94 14 13 C11.525 12.505 11.525 12.505 9 12 C9 11.01 9 10.02 9 9 C6.36 9.33 3.72 9.66 1 10 C0.67 10.99 0.34 11.98 0 13 C-1.65 13 -3.3 13 -5 13 C-3.35 8.71 -1.7 4.42 0 0 Z " fill="#757E99" transform="translate(461,607)"/>
<path d="M0 0 C0.33 1.32 0.66 2.64 1 4 C-1.64 4 -4.28 4 -7 4 C-7 5.65 -7 7.3 -7 9 C-4.69 9 -2.38 9 0 9 C0.33 9.66 0.66 10.32 1 11 C-2.63 11 -6.26 11 -10 11 C-10 7.7 -10 4.4 -10 1 C-6.59437148 0.22157062 -3.49234244 -0.09978121 0 0 Z " fill="#656D8F" transform="translate(533,600)"/>
<path d="M0 0 C1 2 1 2 0.36328125 4.3125 C0.01652344 5.199375 -0.33023437 6.08625 -0.6875 7 C-1.02136719 7.886875 -1.35523438 8.77375 -1.69921875 9.6875 C-3.17189511 12.3055913 -4.22805571 12.97292169 -7 14 C-6.9175 14.721875 -6.835 15.44375 -6.75 16.1875 C-7.07910318 19.88991082 -8.58058957 21.23495951 -11 24 C-11.515625 24.9075 -12.03125 25.815 -12.5625 26.75 C-14 29 -14 29 -17 30 C-15.64210315 26.37324312 -14.01031448 23.13105701 -12.03125 19.8046875 C-11.46019531 18.84175781 -10.88914062 17.87882812 -10.30078125 16.88671875 C-9.70652344 15.89285156 -9.11226563 14.89898437 -8.5 13.875 C-7.90574219 12.87339844 -7.31148438 11.87179687 -6.69921875 10.83984375 C-2.34617624 3.51926436 -2.34617624 3.51926436 0 0 Z " fill="#924EF6" transform="translate(301,354)"/>
<path d="M0 0 C2.97 0.33 5.94 0.66 9 1 C9 1.33 9 1.66 9 2 C7.02 2 5.04 2 3 2 C3 4.64 3 7.28 3 10 C4.32 10.33 5.64 10.66 7 11 C5.68 11 4.36 11 3 11 C3 13.64 3 16.28 3 19 C2.01 19 1.02 19 0 19 C0 12.73 0 6.46 0 0 Z " fill="#5D688D" transform="translate(623,601)"/>
<path d="M0 0 C0.66 0 1.32 0 2 0 C3 3 3 3 1 8 C-16.49 8 -33.98 8 -52 8 C-52 6.35 -52 4.7 -52 3 C-51.67 4.32 -51.34 5.64 -51 7 C-25.755 6.505 -25.755 6.505 0 6 C0 4.02 0 2.04 0 0 Z " fill="#3781EA" transform="translate(706,497)"/>
<path d="M0 0 C2.97 0 5.94 0 9 0 C9 0.33 9 0.66 9 1 C6.69 1 4.38 1 2 1 C2 2.65 2 4.3 2 6 C4.31 6 6.62 6 9 6 C9 6.99 9 7.98 9 9 C6.69 9 4.38 9 2 9 C2 10.65 2 12.3 2 14 C4.64 14 7.28 14 10 14 C9.67 14.99 9.34 15.98 9 17 C9 16.34 9 15.68 9 15 C6.03 15 3.06 15 0 15 C0 10.05 0 5.1 0 0 Z " fill="#848AA5" transform="translate(668,603)"/>
<path d="M0 0 C0.99 0 1.98 0 3 0 C3 6.27 3 12.54 3 19 C1.35 18.67 -0.3 18.34 -2 18 C-1.84660156 17.48953125 -1.69320312 16.9790625 -1.53515625 16.453125 C-0.83094597 13.2250662 -0.65111796 10.04581999 -0.4375 6.75 C-0.35371094 5.48671875 -0.26992188 4.2234375 -0.18359375 2.921875 C-0.12300781 1.95765625 -0.06242188 0.9934375 0 0 Z " fill="#707898" transform="translate(576,601)"/>
<path d="M0 0 C0.33 0 0.66 0 1 0 C1.44197866 4.41978657 1.28528282 6.53317357 -1.0625 10.375 C-4.52169003 13.46619109 -6.41622606 13.9151153 -11 14 C-11.99 13.67 -12.98 13.34 -14 13 C-14 12.34 -14 11.68 -14 11 C-13.37351562 10.86464844 -12.74703125 10.72929688 -12.1015625 10.58984375 C-7.29097767 9.51771332 -7.29097767 9.51771332 -3.95703125 6.2421875 C-3.33633778 4.10496935 -3.33633778 4.10496935 -3 1 C-2.67 1 -2.34 1 -2 1 C-2 2.65 -2 4.3 -2 6 C-1.34 6 -0.68 6 0 6 C0 4.02 0 2.04 0 0 Z " fill="#78819F" transform="translate(720,607)"/>
<path d="M0 0 C1.65 0.33 3.3 0.66 5 1 C5.99 3.97 6.98 6.94 8 10 C5 10 5 10 3.3125 8.5 C2.879375 8.005 2.44625 7.51 2 7 C1.01 8.485 1.01 8.485 0 10 C-0.99 10 -1.98 10 -3 10 C-2.01 6.7 -1.02 3.4 0 0 Z " fill="#7D85A1" transform="translate(373,601)"/>
<path d="M0 0 C0.33 0 0.66 0 1 0 C1 1.98 1 3.96 1 6 C3.31 6 5.62 6 8 6 C8 6.66 8 7.32 8 8 C6.02 8.66 4.04 9.32 2 10 C2 11.98 2 13.96 2 16 C1.01 16 0.02 16 -1 16 C-1.02692484 13.70839681 -1.04636124 11.41670454 -1.0625 9.125 C-1.07410156 7.84882812 -1.08570313 6.57265625 -1.09765625 5.2578125 C-1 2 -1 2 0 0 Z " fill="#535D81" transform="translate(392,604)"/>
<path d="M0 0 C-3.1076191 1.81658904 -5.27864493 2.22950934 -8.86035156 2.13525391 C-9.82104553 2.11508209 -10.7817395 2.09491028 -11.77154541 2.0741272 C-13.31548981 2.02583267 -13.31548981 2.02583267 -14.890625 1.9765625 C-15.95037537 1.95153656 -17.01012573 1.92651062 -18.10198975 1.90072632 C-21.48498827 1.81859049 -24.86739748 1.72197498 -28.25 1.625 C-30.5442468 1.56675396 -32.83851775 1.50945082 -35.1328125 1.453125 C-40.75553426 1.3130212 -46.37784071 1.16102904 -52 1 C-52 0.67 -52 0.34 -52 0 C-45.23747296 -0.16834474 -38.47478368 -0.32821289 -31.71191406 -0.48217773 C-29.41108661 -0.53556083 -27.1103034 -0.59088728 -24.80957031 -0.64819336 C-21.50335224 -0.73020697 -18.19703829 -0.80524013 -14.890625 -0.87890625 C-13.86132874 -0.90594131 -12.83203247 -0.93297638 -11.77154541 -0.96083069 C-10.81085144 -0.98092697 -9.85015747 -1.00102325 -8.86035156 -1.02172852 C-8.01651917 -1.04171402 -7.17268677 -1.06169952 -6.30328369 -1.08229065 C-4.05506619 -1.00196738 -2.15226226 -0.63270284 0 0 Z " fill="#5F6486" transform="translate(204,541)"/>
<path d="M0 0 C0.33 0 0.66 0 1 0 C1 4.95 1 9.9 1 15 C0.01 15.33 -0.98 15.66 -2 16 C-6.90153173 10.08315098 -6.90153173 10.08315098 -7.3125 5.5625 C-7.209375 4.716875 -7.10625 3.87125 -7 3 C-4.66475218 5.25740623 -2.81294927 7.2805761 -1 10 C-0.67 6.7 -0.34 3.4 0 0 Z " fill="#8B92AA" transform="translate(575,601)"/>
<path d="M0 0 C0.99 0 1.98 0 3 0 C3 6.27 3 12.54 3 19 C1.68 19 0.36 19 -1 19 C-0.67 12.73 -0.34 6.46 0 0 Z " fill="#515A7D" transform="translate(643,601)"/>
<path d="M0 0 C0.66 0.33 1.32 0.66 2 1 C-0.99318562 4.33855319 -3.85756662 6.27398609 -8 8 C-9.32 8 -10.64 8 -12 8 C-12 8.66 -12 9.32 -12 10 C-15.63423209 12.32590854 -18.77088331 12.16265833 -23 12 C-18.90271763 9.26847842 -14.41821204 7.54846409 -9.89257812 5.65429688 C-6.2465346 4.09653407 -3.0481172 2.60243949 0 0 Z " fill="#8B56F7" transform="translate(571,314)"/>
<path d="M0 0 C1 2 1 2 0.3984375 3.8828125 C-4.58789582 14.80706948 -4.58789582 14.80706948 -8 19 C-8.99 19.33 -9.98 19.66 -11 20 C-9.36047417 15.3606824 -6.93128948 11.36144142 -4.375 7.1875 C-3.95476562 6.49462891 -3.53453125 5.80175781 -3.1015625 5.08789062 C-2.0710533 3.38989252 -1.03598319 1.69466386 0 0 Z " fill="#8251F3" transform="translate(325,314)"/>
<path d="M0 0 C13.2 0 26.4 0 40 0 C39.34 1.98 38.68 3.96 38 6 C37.67 6 37.34 6 37 6 C37 4.35 37 2.7 37 1 C24.79 1 12.58 1 0 1 C0 0.67 0 0.34 0 0 Z " fill="#584EF4" transform="translate(515,259)"/>
<path d="M0 0 C0.66 0 1.32 0 2 0 C1.43997169 5.56472574 -0.6345243 9.9267939 -3.0625 14.875 C-3.62807617 16.050625 -3.62807617 16.050625 -4.20507812 17.25 C-5.12993234 19.16995053 -6.06403978 21.085439 -7 23 C-8.18648125 19.06521947 -7.5909244 17.45300885 -5.75 13.75 C-3.56929535 9.22458226 -1.69453857 4.72687076 0 0 Z " fill="#8868F6" transform="translate(654,293)"/>
<path d="M0 0 C0.33 0 0.66 0 1 0 C1.125 7.625 1.125 7.625 0 11 C-1.65 11 -3.3 11 -5 11 C-5 8.03 -5 5.06 -5 2 C-4.01 2.99 -3.02 3.98 -2 5 C-1.34 3.35 -0.68 1.7 0 0 Z " fill="#717995" transform="translate(735,609)"/>
<path d="M0 0 C6.35714286 0.48901099 6.35714286 0.48901099 9.4375 2.9375 C11 5 11 5 11 7 C7.1936543 6.32829194 3.64793184 5.27253436 0 4 C0 2.68 0 1.36 0 0 Z " fill="#767E9D" transform="translate(487,600)"/>
<path d="M0 0 C1.8253125 0.4640625 1.8253125 0.4640625 3.6875 0.9375 C9.73076221 2.29868206 15.82945928 2.63758803 22 3 C17.01729893 5.99200471 11.6319429 5.51813875 6 5 C3.63025211 4.24360446 2.08422349 3.38948233 0 2 C0 1.34 0 0.68 0 0 Z " fill="#2770EC" transform="translate(787,541)"/>
<path d="M0 0 C1.32 0 2.64 0 4 0 C4.66 2.31 5.32 4.62 6 7 C5.34 7 4.68 7 4 7 C3.67 7.99 3.34 8.98 3 10 C2.67 9.01 2.34 8.02 2 7 C1.01 7.495 1.01 7.495 0 8 C-1.125 5.6875 -1.125 5.6875 -2 3 C-1.34 2.01 -0.68 1.02 0 0 Z " fill="#8289A5" transform="translate(464,601)"/>
<path d="M0 0 C3.3 0 6.6 0 10 0 C10 0.66 10 1.32 10 2 C7.36 2 4.72 2 2 2 C1.67 6.95 1.34 11.9 1 17 C0.67 17 0.34 17 0 17 C0 11.39 0 5.78 0 0 Z " fill="#525C7F" transform="translate(757,601)"/>
<path d="M0 0 C2.64 0.33 5.28 0.66 8 1 C6.68 1.33 5.36 1.66 4 2 C4 4.31 4 6.62 4 9 C3.34 7.68 2.68 6.36 2 5 C1.67 9.62 1.34 14.24 1 19 C0.67 19 0.34 19 0 19 C0 12.73 0 6.46 0 0 Z " fill="#8F96AF" transform="translate(390,601)"/>
<path d="M0 0 C1.92674301 2.28166935 3.26112192 4.07843561 4.375 6.8125 C0.80601431 6.51508453 -0.36898655 6.09777213 -2.8125 3.375 C-3.410625 2.529375 -4.00875 1.68375 -4.625 0.8125 C-5.285 0.1525 -5.945 -0.5075 -6.625 -1.1875 C-3.38160621 -2.74913405 -2.8418059 -2.36817158 0 0 Z " fill="#767E9C" transform="translate(447.625,613.1875)"/>
<path d="M0 0 C0.33 1.32 0.66 2.64 1 4 C2.65 4 4.3 4 6 4 C6.33 2.68 6.66 1.36 7 0 C11 4.875 11 4.875 11 6 C7.37 6 3.74 6 0 6 C-0.66 4.68 -1.32 3.36 -2 2 C-1.34 1.34 -0.68 0.68 0 0 Z " fill="#626B8E" transform="translate(372,609)"/>
<path d="M0 0 C0.75667969 0.0721875 1.51335937 0.144375 2.29296875 0.21875 C1.34034841 1.70160242 0.3806847 3.17993201 -0.58203125 4.65625 C-1.11570312 5.47996094 -1.649375 6.30367187 -2.19921875 7.15234375 C-3.70703125 9.21875 -3.70703125 9.21875 -5.70703125 10.21875 C-6.03703125 9.55875 -6.36703125 8.89875 -6.70703125 8.21875 C-7.36703125 7.88875 -8.02703125 7.55875 -8.70703125 7.21875 C-7.83027007 6.0376834 -6.92971898 4.87425282 -6.01953125 3.71875 C-5.52066406 3.0690625 -5.02179688 2.419375 -4.5078125 1.75 C-2.70703125 0.21875 -2.70703125 0.21875 0 0 Z " fill="#78819E" transform="translate(449.70703125,600.78125)"/>
<path d="M0 0 C0.66 1.65 1.32 3.3 2 5 C-1.02419525 4.41196203 -4.01758453 3.77321882 -7 3 C-7 2.34 -7 1.68 -7 1 C-7.66 0.67 -8.32 0.34 -9 0 C-5.93109813 -1.53445094 -3.29905734 -0.54984289 0 0 Z " fill="#8086A0" transform="translate(220,601)"/>
<path d="M0 0 C2 0.3125 2 0.3125 4 1 C4.33 1.66 4.66 2.32 5 3 C7.52733235 3.65555119 7.52733235 3.65555119 10 4 C10 4.66 10 5.32 10 6 C6.74770785 7.02214896 5.41076857 7.18671298 2.25 5.75 C0 4 0 4 -1 1 C-0.67 0.67 -0.34 0.34 0 0 Z " fill="#7A829E" transform="translate(209,614)"/>
<path d="M0 0 C2.31 0 4.62 0 7 0 C8.07525194 2.65228812 9.09456151 5.28368454 10 8 C7.6875 7.8125 7.6875 7.8125 5 7 C3.3125 4.5625 3.3125 4.5625 2 2 C1.34 1.34 0.68 0.68 0 0 Z " fill="#7B83A2" transform="translate(626,612)"/>
<path d="M0 0 C2.0683099 2.99904936 2.19927643 5.41302423 2 9 C1.5978125 8.0409375 1.5978125 8.0409375 1.1875 7.0625 C0.11332248 4.66868314 0.11332248 4.66868314 -3 4 C-3.66 3.01 -4.32 2.02 -5 1 C-8.06556598 0.26656572 -8.06556598 0.26656572 -11 0 C-11 -0.33 -11 -0.66 -11 -1 C-3.21145374 -2.49779736 -3.21145374 -2.49779736 0 0 Z " fill="#8A91AB" transform="translate(284,604)"/>
<path d="M0 0 C4.75 0.75 4.75 0.75 7 3 C7.26991906 5.68839385 7.08737357 8.29141936 7 11 C6.34 11 5.68 11 5 11 C4.731875 10.071875 4.46375 9.14375 4.1875 8.1875 C3.06289965 5.1688359 2.29293427 4.0844857 0 2 C0 1.34 0 0.68 0 0 Z " fill="#626B8C" transform="translate(713,602)"/>
<path d="M0 0 C0.99 0.33 1.98 0.66 3 1 C2.67 1.66 2.34 2.32 2 3 C1.76970044 5.37123246 1.58880058 7.74741943 1.4375 10.125 C1.35371094 11.40632812 1.26992188 12.68765625 1.18359375 14.0078125 C1.12300781 14.99523437 1.06242187 15.98265625 1 17 C0.34 17 -0.32 17 -1 17 C-1.02699725 14.72923158 -1.04639453 12.45837179 -1.0625 10.1875 C-1.07990234 8.29064453 -1.07990234 8.29064453 -1.09765625 6.35546875 C-1 3 -1 3 0 0 Z " fill="#47517A" transform="translate(294,603)"/>
<path d="M0 0 C0.33 0 0.66 0 1 0 C1.08097324 2.27024968 1.13917704 4.54132075 1.1875 6.8125 C1.22230469 8.07707031 1.25710938 9.34164062 1.29296875 10.64453125 C1 14 1 14 -0.51171875 15.94921875 C-1.00285156 16.29597656 -1.49398437 16.64273438 -2 17 C-3.98 13.535 -3.98 13.535 -6 10 C-4.68 9.67 -3.36 9.34 -2 9 C-1.67 9.66 -1.34 10.32 -1 11 C-0.67 7.37 -0.34 3.74 0 0 Z " fill="#8B93AB" transform="translate(655,601)"/>
<path d="M0 0 C1.32 0 2.64 0 4 0 C3 2 2 4 1 6 C1.66 6 2.32 6 3 6 C2.34 7.98 1.68 9.96 1 12 C0.34 11.34 -0.32 10.68 -1 10 C-1.66 11.32 -2.32 12.64 -3 14 C-4 12 -4 12 -3.22265625 9.1796875 C-2.83980469 8.08914063 -2.45695313 6.99859375 -2.0625 5.875 C-1.68222656 4.77929688 -1.30195312 3.68359375 -0.91015625 2.5546875 C-0.60980469 1.71164062 -0.30945313 0.86859375 0 0 Z " fill="#9199B1" transform="translate(736,601)"/>
<path d="M0 0 C0.99 0.33 1.98 0.66 3 1 C1.41078475 6.36095277 -0.18972938 11.70843973 -2 17 C-3.0625 15.1875 -3.0625 15.1875 -4 13 C-3.67 12.01 -3.34 11.02 -3 10 C-2.34 10 -1.68 10 -1 10 C-1.01160156 9.36191406 -1.02320313 8.72382812 -1.03515625 8.06640625 C-1.04869141 6.82697266 -1.04869141 6.82697266 -1.0625 5.5625 C-1.07410156 4.73878906 -1.08570313 3.91507812 -1.09765625 3.06640625 C-1 1 -1 1 0 0 Z " fill="#4686EC" transform="translate(532,506)"/>
<path d="M0 0 C0.33 0 0.66 0 1 0 C1 1.65 1 3.3 1 5 C3.64 5 6.28 5 9 5 C9 5.99 9 6.98 9 8 C5.37 8 1.74 8 -2 8 C-1.34 7.67 -0.68 7.34 0 7 C0 4.69 0 2.38 0 0 Z " fill="#677092" transform="translate(759,612)"/>
<path d="M0 0 C1.99097846 2.98646769 2.94124926 5.59687262 4 9 C2.35 8.67 0.7 8.34 -1 8 C-1 7.01 -1 6.02 -1 5 C-5.455 5.495 -5.455 5.495 -10 6 C-10 5.34 -10 4.68 -10 4 C-6.7 4 -3.4 4 0 4 C0 2.68 0 1.36 0 0 Z " fill="#8589A3" transform="translate(471,611)"/>
<path d="M0 0 C0.33 0.99 0.66 1.98 1 3 C1.66 3 2.32 3 3 3 C1.92598892 5.91517292 1.22189824 7.77810176 -1 10 C-1.71927295 12.31765729 -2.3909893 14.65095874 -3 17 C-3.66 17 -4.32 17 -5 17 C-1.92482916 5.47835991 -1.92482916 5.47835991 0 0 Z " fill="#538DF2" transform="translate(524,473)"/>
<path d="M0 0 C0 0.33 0 0.66 0 1 C-5.86130707 2.30251268 -12.02522535 2.52771213 -18 2 C-18.66 1.34 -19.32 0.68 -20 0 C-6.3667426 -1.33257403 -6.3667426 -1.33257403 0 0 Z " fill="#983CFA" transform="translate(554,383)"/>
<path d="M0 0 C0.33 0 0.66 0 1 0 C1.375 3.1875 1.375 3.1875 1 7 C-0.81188028 9.1403498 -2.65801167 10.38988302 -5 12 C-5.33 11.34 -5.66 10.68 -6 10 C-4.8203125 7.6171875 -4.8203125 7.6171875 -3.125 4.875 C-2.57070313 3.96492188 -2.01640625 3.05484375 -1.4453125 2.1171875 C-0.96835937 1.41851562 -0.49140625 0.71984375 0 0 Z " fill="#6C55F1" transform="translate(350,271)"/>
<path d="M0 0 C2.7824349 1.39121745 3.55210065 3.30164212 5 6 C5 6.66 5 7.32 5 8 C1.75791433 7.64950425 0.38472296 7.43778819 -1.8125 4.9375 C-2.4003125 3.9784375 -2.4003125 3.9784375 -3 3 C-2.67 2.34 -2.34 1.68 -2 1 C-1.34 1.33 -0.68 1.66 0 2 C0 1.34 0 0.68 0 0 Z " fill="#7C85A2" transform="translate(255,612)"/>
<path d="M0 0 C0.99 0.33 1.98 0.66 3 1 C3.125 4.375 3.125 4.375 3 8 C2.34 8.66 1.68 9.32 1 10 C0.01 9.67 -0.98 9.34 -2 9 C-1.34 6.03 -0.68 3.06 0 0 Z " fill="#707896" transform="translate(282,608)"/>
<path d="M0 0 C1.32 0 2.64 0 4 0 C5.85776765 3.13498292 6.20140476 5.37471432 6 9 C3 8 3 8 1.3125 5.0625 C0 2 0 2 0 0 Z " fill="#737996" transform="translate(314,601)"/>
<path d="M0 0 C0.33 0 0.66 0 1 0 C1.94405504 4.03793841 2.66578564 7.48707665 0.953125 11.37890625 C-0.28819511 13.32805777 -1.57071536 15.18495688 -3 17 C-4.6168484 13.76630321 -3.00851816 10.69371743 -2.0625 7.375 C-1.76956055 6.31539063 -1.76956055 6.31539063 -1.47070312 5.234375 C-0.98685508 3.48780156 -0.49424877 1.74365876 0 0 Z " fill="#7B67F4" transform="translate(604,262)"/>
<path d="M0 0 C0.33 0 0.66 0 1 0 C1 1.98 1 3.96 1 6 C3.64 6 6.28 6 9 6 C9 6.66 9 7.32 9 8 C5.7 8 2.4 8 -1 8 C-1.125 2.25 -1.125 2.25 0 0 Z " fill="#515C83" transform="translate(606,612)"/>
<path d="M0 0 C0.97631287 3.03741782 1.37693397 5.06254087 0 8 C-5.11111111 12 -5.11111111 12 -9 12 C-8.43410156 11.38511719 -7.86820313 10.77023437 -7.28515625 10.13671875 C-6.18494141 8.92435547 -6.18494141 8.92435547 -5.0625 7.6875 C-3.96615234 6.48673828 -3.96615234 6.48673828 -2.84765625 5.26171875 C-0.82048441 3.05360602 -0.82048441 3.05360602 0 0 Z " fill="#4E8FF5" transform="translate(826,526)"/>
<path d="M0 0 C2.08984375 0.4296875 2.08984375 0.4296875 4 1 C2.71283353 2.00578589 1.42011342 3.00446798 0.125 4 C-0.95394531 4.8353125 -0.95394531 4.8353125 -2.0546875 5.6875 C-4 7 -4 7 -6 7 C-6 7.66 -6 8.32 -6 9 C-6.66 8.67 -7.32 8.34 -8 8 C-6.33333333 6.33333333 -4.66666667 4.66666667 -3 3 C-2.484375 2.38125 -1.96875 1.7625 -1.4375 1.125 C-0.963125 0.75375 -0.48875 0.3825 0 0 Z " fill="#2A6FE2" transform="translate(782,466)"/>
<path d="M0 0 C2.875 -0.125 2.875 -0.125 6 0 C8 2 8 2 8 6 C7.34 6 6.68 6 6 6 C6 5.01 6 4.02 6 3 C3.69 3 1.38 3 -1 3 C-0.67 2.01 -0.34 1.02 0 0 Z " fill="#6C7697" transform="translate(395,601)"/>
<path d="M0 0 C0.99 0 1.98 0 3 0 C3.33 2.64 3.66 5.28 4 8 C3.01 8 2.02 8 1 8 C0.67 5.36 0.34 2.72 0 0 Z " fill="#656F90" transform="translate(726,601)"/>
<path d="M0 0 C3.3 0 6.6 0 10 0 C10 0.66 10 1.32 10 2 C8.72125 2.144375 7.4425 2.28875 6.125 2.4375 C3.74307106 2.70642746 2.15547309 2.92226346 0 4 C0 2.68 0 1.36 0 0 Z " fill="#4A547B" transform="translate(605,601)"/>
<path d="M0 0 C2.475 0.495 2.475 0.495 5 1 C4.67 1.99 4.34 2.98 4 4 C4.99 4 5.98 4 7 4 C6.67 5.65 6.34 7.3 6 9 C3.75972706 6.11964908 1.83827868 3.15133488 0 0 Z " fill="#3E7EE9" transform="translate(700,487)"/>
<path d="M0 0 C0.33 0 0.66 0 1 0 C1.36923077 6.52307692 1.36923077 6.52307692 -0.5 8.9375 C-0.995 9.288125 -1.49 9.63875 -2 10 C-2 9.34 -2 8.68 -2 8 C-2.66 7.67 -3.32 7.34 -4 7 C-3.67 5.02 -3.34 3.04 -3 1 C-2.67 1 -2.34 1 -2 1 C-2 2.65 -2 4.3 -2 6 C-1.34 6 -0.68 6 0 6 C0 4.02 0 2.04 0 0 Z " fill="#939AB1" transform="translate(720,607)"/>
<path d="M0 0 C0.33 0 0.66 0 1 0 C1.0825 0.94875 1.165 1.8975 1.25 2.875 C1.65074923 6.10461791 1.65074923 6.10461791 4.0625 7.375 C4.701875 7.58125 5.34125 7.7875 6 8 C4.68 8.33 3.36 8.66 2 9 C1.67 10.98 1.34 12.96 1 15 C0.67 15 0.34 15 0 15 C0 10.05 0 5.1 0 0 Z " fill="#434E79" transform="translate(624,604)"/>
<path d="M0 0 C0.99 0 1.98 0 3 0 C2.67 2.31 2.34 4.62 2 7 C1.01 6.67 0.02 6.34 -1 6 C-1.042721 4.33388095 -1.04063832 2.66617115 -1 1 C-0.67 0.67 -0.34 0.34 0 0 Z " fill="#6A7391" transform="translate(210,602)"/>
<path d="M0 0 C0.66 0.33 1.32 0.66 2 1 C2.4140625 3.06640625 2.4140625 3.06640625 2.625 5.5625 C2.69976563 6.38878906 2.77453125 7.21507812 2.8515625 8.06640625 C2.90054688 8.70449219 2.94953125 9.34257813 3 10 C2.34 9.34 1.68 8.68 1 8 C1 7.01 1 6.02 1 5 C0.01 5.33 -0.98 5.66 -2 6 C-1.49396008 3.83125748 -1.00016187 2.00032373 0 0 Z " fill="#4D5982" transform="translate(738,602)"/>
<path d="M0 0 C0.33 2.64 0.66 5.28 1 8 C-0.70884005 6.37660195 -2.37446717 4.70680947 -4 3 C-4 2.34 -4 1.68 -4 1 C-2 0 -2 0 0 0 Z " fill="#2A95F7" transform="translate(350,115)"/>
<path d="M0 0 C0 1.98 0 3.96 0 6 C-1.875 5.75 -1.875 5.75 -4 5 C-5.25 2.9375 -5.25 2.9375 -6 1 C-1.125 0 -1.125 0 0 0 Z " fill="#6E7593" transform="translate(307,614)"/>
<path d="M0 0 C1.98 0 3.96 0 6 0 C6 0.99 6 1.98 6 3 C4.35 2.67 2.7 2.34 1 2 C1 4.31 1 6.62 1 9 C0.67 9 0.34 9 0 9 C0 6.03 0 3.06 0 0 Z " fill="#687191" transform="translate(249,611)"/>
<path d="M0 0 C0.99 0 1.98 0 3 0 C2.34 4.62 1.68 9.24 1 14 C0.67 14 0.34 14 0 14 C0 9.38 0 4.76 0 0 Z " fill="#606A8B" transform="translate(643,601)"/>
<path d="M0 0 C0.33 0 0.66 0 1 0 C1.33 1.65 1.66 3.3 2 5 C4.31 5.33 6.62 5.66 9 6 C9 6.33 9 6.66 9 7 C5.7 7 2.4 7 -1 7 C-0.67 4.69 -0.34 2.38 0 0 Z " fill="#4B567E" transform="translate(524,612)"/>
<path d="M0 0 C-3.66539668 2.37706418 -6.49056835 2.05094317 -10.75 1.625 C-11.92046875 1.51414062 -13.0909375 1.40328125 -14.296875 1.2890625 C-15.18890625 1.19367187 -16.0809375 1.09828125 -17 1 C-17 0.67 -17 0.34 -17 0 C-14.9174133 -0.19561869 -12.83388144 -0.38119313 -10.75 -0.5625 C-9.58984375 -0.66691406 -8.4296875 -0.77132812 -7.234375 -0.87890625 C-4.48128523 -0.98198087 -2.580018 -0.86213473 0 0 Z " fill="#575E7C" transform="translate(204,541)"/>
<path d="M0 0 C0.66 0.33 1.32 0.66 2 1 C-1.07999946 4.67230705 -3.2482602 5.56802365 -8 6 C-5.38485683 3.87961365 -2.80362384 1.86908256 0 0 Z " fill="#905FFB" transform="translate(571,314)"/>
<path d="M0 0 C0.99 0.495 0.99 0.495 2 1 C2 2.32 2 3.64 2 5 C2.66 5 3.32 5 4 5 C4 5.99 4 6.98 4 8 C3.01 8 2.02 8 1 8 C-0.35439668 5.29120665 -0.06501451 2.99066732 0 0 Z " fill="#4A567B" transform="translate(730,611)"/>
<path d="M0 0 C2.0625 1.6875 2.0625 1.6875 4 4 C3.75 6.75 3.75 6.75 3 9 C1.5 7.875 1.5 7.875 0 6 C-0.1875 2.8125 -0.1875 2.8125 0 0 Z " fill="#8189A5" transform="translate(568,604)"/>
<path d="M0 0 C0.66 0.33 1.32 0.66 2 1 C0.35 2.98 -1.3 4.96 -3 7 C-3.99 6.34 -4.98 5.68 -6 5 C-4.02 3.35 -2.04 1.7 0 0 Z " fill="#4185F2" transform="translate(710,533)"/>
<path d="M0 0 C0.33 0.66 0.66 1.32 1 2 C1.66 2.33 2.32 2.66 3 3 C2.34 3 1.68 3 1 3 C0.896875 3.598125 0.79375 4.19625 0.6875 4.8125 C-0.08876455 7.28243264 -1.07088921 8.32251235 -3 10 C-2.39009109 6.44219804 -1.4216319 3.3171411 0 0 Z " fill="#4681E7" transform="translate(512,508)"/>
<path d="M0 0 C1.0625 1.8125 1.0625 1.8125 2 4 C1.67 4.99 1.34 5.98 1 7 C0.34 7 -0.32 7 -1 7 C-1.33 8.32 -1.66 9.64 -2 11 C-3 9 -3 9 -2.44140625 6.8359375 C-2.15136719 6.02382813 -1.86132812 5.21171875 -1.5625 4.375 C-1.27503906 3.55773437 -0.98757813 2.74046875 -0.69140625 1.8984375 C-0.46324219 1.27195312 -0.23507812 0.64546875 0 0 Z " fill="#5994F2" transform="translate(583,503)"/>
<path d="M0 0 C0.99 0 1.98 0 3 0 C3.77842938 3.40562852 4.09978121 6.50765756 4 10 C1.81024227 6.71536341 1.00193437 3.79303725 0 0 Z " fill="#4384EF" transform="translate(541,500)"/>
<path d="M0 0 C3.3 0 6.6 0 10 0 C9.34 1.98 8.68 3.96 8 6 C7.67 6 7.34 6 7 6 C7 4.35 7 2.7 7 1 C4.69 1 2.38 1 0 1 C0 0.67 0 0.34 0 0 Z " fill="#736AF9" transform="translate(545,259)"/>
<path d="M0 0 C2.0625 0.4375 2.0625 0.4375 4 1 C2.35 2.65 0.7 4.3 -1 6 C-1.042721 4.33388095 -1.04063832 2.66617115 -1 1 C-0.67 0.67 -0.34 0.34 0 0 Z " fill="#757E9B" transform="translate(484,601)"/>
<path d="M0 0 C0.66 1.32 1.32 2.64 2 4 C-1.27275026 4 -3.846632 3.70074844 -7 3 C-7 2.67 -7 2.34 -7 2 C-4.69 1.34 -2.38 0.68 0 0 Z " fill="#8C94AE" transform="translate(280,615)"/>
<path d="M0 0 C0.33 0 0.66 0 1 0 C1.66 2.64 2.32 5.28 3 8 C1.68 8.33 0.36 8.66 -1 9 C-1 5.72724974 -0.70074844 3.153368 0 0 Z " fill="#9095AF" transform="translate(482,608)"/>
<path d="M0 0 C0.99 0 1.98 0 3 0 C3.33 1.65 3.66 3.3 4 5 C2.68 4.67 1.36 4.34 0 4 C0 2.68 0 1.36 0 0 Z " fill="#737A97" transform="translate(380,615)"/>
<path d="M0 0 C2.31 0.33 4.62 0.66 7 1 C5.75 2.5 5.75 2.5 4 4 C2.68 4 1.36 4 0 4 C0 2.68 0 1.36 0 0 Z " fill="#9096AF" transform="translate(487,600)"/>
<path d="M0 0 C0.66 0 1.32 0 2 0 C1.45276317 3.37462715 0.9451 5.08235 -1 8 C-1.625 5.6875 -1.625 5.6875 -2 3 C-1.34 2.01 -0.68 1.02 0 0 Z " fill="#4485ED" transform="translate(597,525)"/>
<path d="M0 0 C0.33 0.66 0.66 1.32 1 2 C0.0625 4.625 0.0625 4.625 -1 7 C-1.33 6.34 -1.66 5.68 -2 5 C-2.66 4.67 -3.32 4.34 -4 4 C-3.67 3.01 -3.34 2.02 -3 1 C-2.01 0.67 -1.02 0.34 0 0 Z " fill="#4284F0" transform="translate(527,526)"/>
<path d="M0 0 C0.33 0.99 0.66 1.98 1 3 C1.66 3 2.32 3 3 3 C2.34 4.65 1.68 6.3 1 8 C0.34 7.67 -0.32 7.34 -1 7 C-0.67 4.69 -0.34 2.38 0 0 Z " fill="#3276EB" transform="translate(524,473)"/>
<path d="M0 0 C-1.37691962 2.75383923 -3.36720042 3.51483101 -6 5 C-6.66 4.34 -7.32 3.68 -8 3 C-3.375 0 -3.375 0 0 0 Z " fill="#424D6B" transform="translate(281,467)"/>
</svg>
